<svg width="45" height="45" viewBox="0 0 45 45" fill="none" xmlns="http://www.w3.org/2000/svg">
<g clip-path="url(#clip0_43_597)">
<path d="M22.0801 44.14C34.2303 44.14 44.0801 34.2903 44.0801 22.14C44.0801 9.98975 34.2303 0.140015 22.0801 0.140015C9.92981 0.140015 0.0800781 9.98975 0.0800781 22.14C0.0800781 34.2903 9.92981 44.14 22.0801 44.14Z" fill="#F4EFFF"/>
<mask id="mask0_43_597" style="mask-type:alpha" maskUnits="userSpaceOnUse" x="13" y="12" width="19" height="19">
<rect x="13.0801" y="12.64" width="18" height="18" fill="#D9D9D9"/>
</mask>
<g mask="url(#mask0_43_597)">
<path d="M16.8301 29.14C15.7926 29.14 14.9082 28.7744 14.177 28.0431C13.4457 27.3119 13.0801 26.4275 13.0801 25.39C13.0801 24.3525 13.4457 23.4681 14.177 22.7369C14.9082 22.0056 15.7926 21.64 16.8301 21.64C17.8676 21.64 18.752 22.0056 19.4832 22.7369C20.2145 23.4681 20.5801 24.3525 20.5801 25.39C20.5801 26.4275 20.2145 27.3119 19.4832 28.0431C18.752 28.7744 17.8676 29.14 16.8301 29.14ZM16.8301 27.64C17.4551 27.64 17.9863 27.4213 18.4238 26.9838C18.8613 26.5463 19.0801 26.015 19.0801 25.39C19.0801 24.765 18.8613 24.2338 18.4238 23.7963C17.9863 23.3588 17.4551 23.14 16.8301 23.14C16.2051 23.14 15.6738 23.3588 15.2363 23.7963C14.7988 24.2338 14.5801 24.765 14.5801 25.39C14.5801 26.015 14.7988 26.5463 15.2363 26.9838C15.6738 27.4213 16.2051 27.64 16.8301 27.64ZM21.3301 26.89V23.14L18.9301 21.04C18.7801 20.9025 18.6676 20.7431 18.5926 20.5619C18.5176 20.3806 18.4801 20.19 18.4801 19.99C18.4801 19.79 18.5207 19.5994 18.602 19.4181C18.6832 19.2369 18.7926 19.0775 18.9301 18.94L21.0301 16.84C21.1801 16.69 21.352 16.5775 21.5457 16.5025C21.7395 16.4275 21.9426 16.39 22.1551 16.39C22.3676 16.39 22.5707 16.4275 22.7645 16.5025C22.9582 16.5775 23.1301 16.69 23.2801 16.84L24.7051 18.265C25.0551 18.615 25.4551 18.89 25.9051 19.09C26.3551 19.29 26.8301 19.39 27.3301 19.39V20.89C26.6176 20.89 25.9395 20.7525 25.2957 20.4775C24.652 20.2025 24.0801 19.815 23.5801 19.315L22.9801 18.715L21.1801 20.515L22.8301 22.24V26.89H21.3301ZM24.7051 16.765C24.2926 16.765 23.9395 16.6181 23.6457 16.3244C23.352 16.0306 23.2051 15.6775 23.2051 15.265C23.2051 14.8525 23.352 14.4994 23.6457 14.2056C23.9395 13.9119 24.2926 13.765 24.7051 13.765C25.1176 13.765 25.4707 13.9119 25.7645 14.2056C26.0582 14.4994 26.2051 14.8525 26.2051 15.265C26.2051 15.6775 26.0582 16.0306 25.7645 16.3244C25.4707 16.6181 25.1176 16.765 24.7051 16.765ZM27.3301 29.14C26.2926 29.14 25.4082 28.7744 24.677 28.0431C23.9457 27.3119 23.5801 26.4275 23.5801 25.39C23.5801 24.3525 23.9457 23.4681 24.677 22.7369C25.4082 22.0056 26.2926 21.64 27.3301 21.64C28.3676 21.64 29.252 22.0056 29.9832 22.7369C30.7145 23.4681 31.0801 24.3525 31.0801 25.39C31.0801 26.4275 30.7145 27.3119 29.9832 28.0431C29.252 28.7744 28.3676 29.14 27.3301 29.14ZM27.3301 27.64C27.9551 27.64 28.4863 27.4213 28.9238 26.9838C29.3613 26.5463 29.5801 26.015 29.5801 25.39C29.5801 24.765 29.3613 24.2338 28.9238 23.7963C28.4863 23.3588 27.9551 23.14 27.3301 23.14C26.7051 23.14 26.1738 23.3588 25.7363 23.7963C25.2988 24.2338 25.0801 24.765 25.0801 25.39C25.0801 26.015 25.2988 26.5463 25.7363 26.9838C26.1738 27.4213 26.7051 27.64 27.3301 27.64Z" fill="#8456E9"/>
</g>
</g>
<defs>
<clipPath id="clip0_43_597">
<rect width="44" height="44" fill="white" transform="translate(0.0800781 0.140015)"/>
</clipPath>
</defs>
</svg>
