<svg width="957" height="315" viewBox="0 0 957 315" fill="none" xmlns="http://www.w3.org/2000/svg">
<g clip-path="url(#clip0_41_731)">
<g clip-path="url(#clip1_41_731)">
<g clip-path="url(#clip2_41_731)">
<mask id="mask0_41_731" style="mask-type:luminance" maskUnits="userSpaceOnUse" x="0" y="0" width="957" height="315">
<path d="M956.48 0.329956H0.520508V315H956.48V0.329956Z" fill="white"/>
</mask>
<g mask="url(#mask0_41_731)">
<mask id="mask1_41_731" style="mask-type:luminance" maskUnits="userSpaceOnUse" x="-469" y="210" width="1913" height="99">
<path d="M1443.75 210.11H-468.166V308.162H1443.75V210.11Z" fill="white"/>
</mask>
<g mask="url(#mask1_41_731)">
<path d="M-368.472 297.534H1395.06" stroke="#353535" stroke-width="1.32772" stroke-dasharray="82.01 82.01"/>
<mask id="mask2_41_731" style="mask-type:alpha" maskUnits="userSpaceOnUse" x="422" y="199" width="104" height="104">
<rect x="0.75" y="-0.75" width="101.5" height="101.5" transform="matrix(-1 0 0 1 525.999 201)" fill="#D9D9D9" stroke="black" stroke-width="1.5"/>
</mask>
<g mask="url(#mask2_41_731)">
<path d="M501.562 253.584C496.516 253.584 492.2 255.371 488.655 258.929C485.112 262.487 483.332 266.81 483.332 271.854C483.332 276.9 485.119 281.216 488.678 284.76C492.236 288.304 496.558 290.084 501.603 290.084C506.648 290.084 510.965 288.296 514.509 284.738C518.052 281.18 519.832 276.857 519.832 271.812C519.832 266.767 518.045 262.45 514.486 258.906C510.928 255.362 506.606 253.584 501.562 253.584ZM447.395 253.584C442.349 253.584 438.033 255.371 434.488 258.929C430.945 262.487 429.165 266.81 429.165 271.854C429.165 276.9 430.952 281.216 434.511 284.76C438.069 288.304 442.392 290.084 447.437 290.084C452.482 290.084 456.799 288.297 460.343 284.738C463.886 281.18 465.665 276.857 465.665 271.812C465.665 266.767 463.878 262.45 460.319 258.906C456.761 255.363 452.439 253.584 447.395 253.584ZM501.557 258C505.405 258 508.661 259.337 511.366 262.027L511.365 262.028C514.07 264.717 515.415 267.963 515.415 271.808C515.415 275.656 514.077 278.911 511.388 281.617L511.134 281.867C508.495 284.404 505.333 285.667 501.607 285.667C497.76 285.667 494.504 284.329 491.799 281.639L491.549 281.385C489.011 278.746 487.749 275.584 487.749 271.858C487.749 268.131 489.005 264.96 491.528 262.305L491.776 262.049C494.466 259.345 497.711 258 501.557 258ZM447.391 258C451.238 258 454.494 259.338 457.199 262.028C459.904 264.717 461.249 267.963 461.249 271.808C461.249 275.656 459.91 278.911 457.221 281.617C454.531 284.321 451.286 285.667 447.44 285.667C443.593 285.667 440.337 284.329 437.632 281.639C434.927 278.95 433.582 275.704 433.582 271.858C433.582 268.01 434.92 264.755 437.609 262.049C440.299 259.345 443.545 258 447.391 258ZM461.999 211.292C460.214 211.292 458.683 211.901 457.458 213.126C456.233 214.35 455.624 215.881 455.624 217.667C455.624 219.452 456.233 220.983 457.458 222.208C458.683 223.432 460.214 224.042 461.999 224.042C463.784 224.042 465.315 223.432 466.539 222.208C467.764 220.983 468.374 219.452 468.374 217.667C468.374 215.881 467.764 214.35 466.539 213.126C465.315 211.901 463.784 211.292 461.999 211.292ZM446.874 244.961L447.705 244.871C450.981 244.515 454.084 243.642 457.009 242.251C459.933 240.86 462.538 239.022 464.82 236.739L469.499 232.06L481.575 244.135L472.499 253.606L472.29 253.824V278.209H476.707V257.32L491.189 246.815L491.217 246.796L491.242 246.773C491.798 246.286 492.249 245.715 492.592 245.062L492.731 244.778C493.09 244.003 493.27 243.183 493.27 242.328C493.269 241.473 493.09 240.671 492.722 239.935C492.369 239.23 491.885 238.575 491.279 237.969L478.987 225.678C478.358 225.049 477.615 224.561 476.766 224.213C475.912 223.862 475.017 223.687 474.085 223.687C473.153 223.687 472.257 223.863 471.402 224.213C470.551 224.561 469.806 225.049 469.177 225.678L461.26 233.594C459.373 235.481 457.272 236.976 454.956 238.084C452.634 239.194 450.16 239.919 447.528 240.257L446.874 240.341V244.961Z" stroke="#353535" stroke-width="1.5"/>
</g>
</g>
<path d="M179.545 122.924C179.553 118.074 181.175 113.366 184.157 109.541C187.138 105.716 191.308 102.993 196.009 101.801C195.994 101.549 195.947 101.302 195.947 101.047C195.947 88.9647 211.864 79.1701 231.498 79.1701C240.064 79.0158 248.521 81.1078 256.028 85.2378C257.854 84.8569 259.713 84.6563 261.578 84.639C273.66 84.639 283.456 91.9853 283.456 101.047C283.421 101.48 283.363 101.912 283.283 102.339C292.909 105.31 299.863 113.359 299.863 122.919C299.782 126.66 298.719 130.315 296.78 133.515C294.84 136.716 292.094 139.351 288.815 141.155C288.84 141.46 288.925 141.751 288.925 142.062C288.925 149.612 281.579 155.737 272.517 155.737C268.717 155.76 265.003 154.596 261.896 152.407C258.4 157.787 253.449 161.206 247.904 161.206C243.242 161.206 239.027 158.731 235.706 154.775C233.231 158.746 229.809 161.206 226.026 161.206C222.534 161.206 219.387 159.048 216.966 155.602C216.338 155.646 215.732 155.734 215.088 155.734C209.456 155.891 203.976 153.903 199.754 150.173C199.392 150.19 199.048 150.266 198.68 150.266C188.109 150.266 179.538 142.919 179.538 133.858C179.567 132.188 179.891 130.537 180.496 128.981C179.893 127.017 179.572 124.978 179.545 122.924Z" stroke="#1D1D1B" stroke-width="1.32772"/>
<path d="M236.061 111.986V265.124" stroke="#1D1D1B" stroke-width="1.32772"/>
<path d="M236.061 139.33L250.646 120.189" stroke="#1D1D1B" stroke-width="1.32772"/>
<path d="M236.061 150.27L217.83 129.76" stroke="#1D1D1B" stroke-width="1.32772"/>
<path d="M-1522.1 265.122H418.551" stroke="#1D1D1B" stroke-width="1.32772"/>
<path d="M217.721 265.124C217.787 264.653 217.823 264.178 217.83 263.702C217.83 256.811 211.486 251.287 203.665 251.287C202.428 251.312 201.199 251.478 200 251.779C199.397 243.575 193.383 237.121 185.998 237.121C179.819 237.121 174.622 241.606 172.653 247.841C172.384 247.778 172.109 247.742 171.832 247.732C164.011 247.732 157.667 253.309 157.667 260.148C157.669 261.879 158.081 263.585 158.87 265.125" stroke="#1D1D1B" stroke-width="1.32772"/>
<path d="M343.7 226.839H358.535C358.744 226.839 358.943 226.922 359.091 227.07C359.238 227.217 359.321 227.417 359.321 227.625V258.869C359.321 259.078 359.238 259.278 359.091 259.425C358.943 259.572 358.744 259.655 358.535 259.655H343.7C343.492 259.655 343.291 259.572 343.144 259.425C342.996 259.277 342.913 259.077 342.913 258.868V227.627C342.913 227.418 342.996 227.218 343.144 227.07C343.291 226.922 343.492 226.839 343.7 226.839Z" stroke="#1D1D1B" stroke-width="1.32772"/>
<path d="M353.851 259.655H348.382V265.124H353.851V259.655Z" stroke="#1D1D1B" stroke-width="1.32772"/>
<path d="M315.567 232.308H255.405V237.777H315.567V232.308Z" stroke="#1D1D1B" stroke-width="1.32772"/>
<path d="M315.567 248.716H255.405V254.185H315.567V248.716Z" stroke="#1D1D1B" stroke-width="1.32772"/>
<path d="M310.097 254.186H304.628V265.125H310.097V254.186Z" stroke="#1D1D1B" stroke-width="1.32772"/>
<path d="M266.344 254.186H260.875V265.125H266.344V254.186Z" stroke="#1D1D1B" stroke-width="1.32772"/>
<path d="M304.628 237.778H299.159V248.718H304.628V237.778Z" stroke="#1D1D1B" stroke-width="1.32772"/>
<path d="M271.813 237.778H266.344V248.718H271.813V237.778Z" stroke="#1D1D1B" stroke-width="1.32772"/>
<path d="M380.529 29.0353C379.297 25.4651 373.548 22.7618 366.613 22.7618C358.779 22.7618 352.435 26.2139 352.435 30.4626C352.435 30.4772 352.442 30.4905 352.442 30.5038C351.778 30.4786 351.096 30.4626 350.41 30.4626C338.551 30.4626 328.938 34.3621 328.938 39.1738C328.938 43.9855 338.552 47.8837 350.41 47.8837C354.257 47.9081 358.091 47.4573 361.828 46.5413C364.825 47.4486 367.943 47.9011 371.075 47.8837C381.367 47.8837 389.71 43.3495 389.71 37.7558C389.705 34.0369 386.015 30.7985 380.529 29.0353Z" stroke="#1D1D1B" stroke-width="1.32772"/>
<path d="M129.038 182.132H-17.4189V255.36H129.038V182.132Z" stroke="#1D1D1B" stroke-width="1.32772"/>
<path d="M136.361 255.36H-24.7422V265.124H136.361V255.36Z" stroke="#1D1D1B" stroke-width="1.32772"/>
<path d="M133.919 177.25H-22.3008V182.132H133.919V177.25Z" stroke="#1D1D1B" stroke-width="1.32772"/>
<path d="M133.92 177.25H-22.3008L-14.9769 157.722H126.597L133.92 177.25Z" stroke="#1D1D1B" stroke-width="1.32772"/>
<path d="M133.919 79.6122H-22.3008V84.4943H133.919V79.6122Z" stroke="#1D1D1B" stroke-width="1.32772"/>
<path d="M133.92 79.6122H-22.3008L-14.9769 60.0841H126.597L133.92 79.6122Z" stroke="#1D1D1B" stroke-width="1.32772"/>
<path d="M126.596 84.4943H-14.9785V157.722H126.596V84.4943Z" stroke="#1D1D1B" stroke-width="1.32772"/>
<path d="M127.817 55.2034H-16.1982V60.0855H127.817V55.2034Z" stroke="#1D1D1B" stroke-width="1.32772"/>
<path d="M127.817 35.6753H-16.1982V40.5573H127.817V35.6753Z" stroke="#1D1D1B" stroke-width="1.32772"/>
<path d="M125.376 40.5573H120.494V55.2034H125.376V40.5573Z" stroke="#1D1D1B" stroke-width="1.32772"/>
<path d="M113.172 40.5573H108.29V55.2034H113.172V40.5573Z" stroke="#1D1D1B" stroke-width="1.32772"/>
<path d="M100.968 40.5573H96.0859V55.2034H100.968V40.5573Z" stroke="#1D1D1B" stroke-width="1.32772"/>
<path d="M88.7619 40.5573H83.8799V55.2034H88.7619V40.5573Z" stroke="#1D1D1B" stroke-width="1.32772"/>
<path d="M76.5578 40.5573H71.6758V55.2034H76.5578V40.5573Z" stroke="#1D1D1B" stroke-width="1.32772"/>
<path d="M64.3527 40.5573H59.4707V55.2034H64.3527V40.5573Z" stroke="#1D1D1B" stroke-width="1.32772"/>
<path d="M52.1486 40.5573H47.2666V55.2034H52.1486V40.5573Z" stroke="#1D1D1B" stroke-width="1.32772"/>
<path d="M39.9426 40.5573H35.0605V55.2034H39.9426V40.5573Z" stroke="#1D1D1B" stroke-width="1.32772"/>
<path d="M27.7385 40.5573H22.8564V55.2034H27.7385V40.5573Z" stroke="#1D1D1B" stroke-width="1.32772"/>
<path d="M15.5344 40.5573H10.6523V55.2034H15.5344V40.5573Z" stroke="#1D1D1B" stroke-width="1.32772"/>
<path d="M3.3293 40.5573H-1.55273V55.2034H3.3293V40.5573Z" stroke="#1D1D1B" stroke-width="1.32772"/>
<path d="M21.6366 191.896H-7.6543V233.392H21.6366V191.896Z" stroke="#1D1D1B" stroke-width="1.32772"/>
<path d="M80.2194 191.896H31.4004V255.361H80.2194V191.896Z" stroke="#1D1D1B" stroke-width="1.32772"/>
<path d="M6.99023 191.896V233.392" stroke="#1D1D1B" stroke-width="1.32772"/>
<path d="M-7.6543 199.219H21.6366" stroke="#1D1D1B" stroke-width="1.32772"/>
<path d="M119.274 191.896H89.9834V233.392H119.274V191.896Z" stroke="#1D1D1B" stroke-width="1.32772"/>
<path d="M104.628 191.896V233.392" stroke="#1D1D1B" stroke-width="1.32772"/>
<path d="M89.9824 199.219H119.273" stroke="#1D1D1B" stroke-width="1.32772"/>
<path d="M21.6366 94.2584H-7.6543V135.754H21.6366V94.2584Z" stroke="#1D1D1B" stroke-width="1.32772"/>
<path d="M6.99023 94.2584V135.754" stroke="#1D1D1B" stroke-width="1.32772"/>
<path d="M-7.6543 101.581H21.6366" stroke="#1D1D1B" stroke-width="1.32772"/>
<path d="M70.4549 94.2584H41.1641V135.754H70.4549V94.2584Z" stroke="#1D1D1B" stroke-width="1.32772"/>
<path d="M55.8096 94.2584V135.754" stroke="#1D1D1B" stroke-width="1.32772"/>
<path d="M41.1641 101.581H70.4549" stroke="#1D1D1B" stroke-width="1.32772"/>
<path d="M116.833 94.2584H87.542V135.754H116.833V94.2584Z" stroke="#1D1D1B" stroke-width="1.32772"/>
<path d="M102.188 94.2584V135.754" stroke="#1D1D1B" stroke-width="1.32772"/>
<path d="M87.542 101.581H116.833" stroke="#1D1D1B" stroke-width="1.32772"/>
<path d="M55.8096 191.896V255.361" stroke="#1D1D1B" stroke-width="1.32772"/>
<path d="M53.3673 218.746H46.0449V221.186H53.3673V218.746Z" stroke="#1D1D1B" stroke-width="1.32772"/>
<path d="M65.5734 218.746H58.251V221.186H65.5734V218.746Z" stroke="#1D1D1B" stroke-width="1.32772"/>
<path d="M45.0137 131.824L53.3876 123.45" stroke="#1D1D1B" stroke-width="1.32772"/>
<path d="M47.2666 121.386L50.8023 117.851" stroke="#1D1D1B" stroke-width="1.32772"/>
<path d="M104.629 116.135C105.018 115.505 112.683 108.081 112.683 108.081" stroke="#1D1D1B" stroke-width="1.32772"/>
<path d="M107.024 121.386L111.503 116.908" stroke="#1D1D1B" stroke-width="1.32772"/>
<path d="M-4.54883 120.189L3.43078 112.209" stroke="#1D1D1B" stroke-width="1.32772"/>
<path d="M-4.54883 112.8L0.529707 107.721" stroke="#1D1D1B" stroke-width="1.32772"/>
<path d="M10.6523 223.628L18.7023 215.578" stroke="#1D1D1B" stroke-width="1.32772"/>
<path d="M10.6523 215.578L16.7413 209.489" stroke="#1D1D1B" stroke-width="1.32772"/>
<path d="M93.8799 212.645L100.78 205.743" stroke="#1D1D1B" stroke-width="1.32772"/>
<path d="M92.6572 220.649L98.1274 215.179" stroke="#1D1D1B" stroke-width="1.32772"/>
<path d="M-11.3164 64.3979H13.6965" stroke="#1D1D1B" stroke-width="1.32772"/>
<path d="M100.967 74.7913H122.935" stroke="#1D1D1B" stroke-width="1.32772"/>
<path d="M-13.7578 171.728H13.0927" stroke="#1D1D1B" stroke-width="1.32772"/>
<path d="M89.9824 161.721H118.028" stroke="#1D1D1B" stroke-width="1.32772"/>
<path d="M5.53809 139.332H20.2107" stroke="#1D1D1B" stroke-width="1.32772"/>
<path d="M80.2188 139.332H97.3304" stroke="#1D1D1B" stroke-width="1.32772"/>
<path d="M59.4707 90.3814H76.5572" stroke="#1D1D1B" stroke-width="1.32772"/>
<path d="M6.99023 237.121H25.2969" stroke="#1D1D1B" stroke-width="1.32772"/>
<path d="M87.542 186.67H104.628" stroke="#1D1D1B" stroke-width="1.32772"/>
<path d="M321.037 157.966C321.037 163.091 316.115 167.284 310.099 167.284C304.083 167.284 299.159 163.091 299.159 157.966C299.159 153.634 302.659 150 307.363 148.975C309.161 148.54 311.036 148.54 312.833 148.975C317.536 150 321.037 153.634 321.037 157.966Z" stroke="#1D1D1B" stroke-width="1.32772"/>
<path d="M359.321 157.966C359.321 163.091 354.398 167.284 348.382 167.284C342.366 167.284 337.444 163.091 337.444 157.966C337.444 153.634 340.944 150 345.648 148.975C347.445 148.54 349.32 148.54 351.117 148.975C355.821 150 359.321 153.634 359.321 157.966Z" stroke="#1D1D1B" stroke-width="1.32772"/>
<path d="M331.974 143.991H326.505V265.124H331.974V143.991Z" stroke="#1D1D1B" stroke-width="1.32772"/>
<path d="M346.559 139.331C347.677 139.248 348.782 139.609 349.635 140.336C350.488 141.063 351.021 142.096 351.117 143.213V148.974C349.32 148.539 347.445 148.539 345.648 148.974V143.991H312.832V148.976C311.035 148.542 309.16 148.542 307.363 148.976V143.215C307.46 142.099 307.992 141.065 308.845 140.339C309.698 139.612 310.804 139.251 311.921 139.333L346.559 139.331Z" stroke="#1D1D1B" stroke-width="1.32772"/>
<path d="M342.913 161.721C342.913 161.721 351.244 167.776 356.918 157.287" stroke="#1D1D1B" stroke-width="1.32772"/>
<path d="M305.104 163.46C305.104 163.46 313.301 168.108 317.484 157.968" stroke="#1D1D1B" stroke-width="1.32772"/>
<path d="M1063.31 90.5991C1063.3 84.6467 1061.31 78.8671 1057.65 74.1728C1053.99 69.4785 1048.87 66.1369 1043.1 64.6754C1043.12 64.366 1043.18 64.062 1043.18 63.746C1043.18 48.918 1023.64 36.8968 999.548 36.8968C987.864 36.8968 977.274 39.7408 969.442 44.344C967.201 43.8764 964.919 43.6301 962.63 43.6084C947.802 43.6084 935.781 52.6236 935.781 63.7446C935.823 64.2765 935.894 64.8057 935.994 65.3299C924.177 68.9759 915.644 78.8501 915.644 90.5938C915.644 99.9489 921.039 108.168 929.202 112.974C929.173 113.35 929.069 113.705 929.069 114.087C929.069 123.354 938.086 130.868 949.207 130.868C953.871 130.895 958.428 129.467 962.241 126.781C966.531 133.384 972.608 137.579 979.413 137.579C985.134 137.579 990.3 134.541 994.381 129.686C997.419 134.56 1001.62 137.579 1006.26 137.579C1010.55 137.579 1014.42 134.93 1017.38 130.702C1018.15 130.756 1018.9 130.868 1019.69 130.868C1027.42 130.868 1034.23 128.162 1038.51 124.042C1038.95 124.063 1039.37 124.156 1039.82 124.156C1052.8 124.156 1063.32 115.141 1063.32 104.018C1063.28 101.97 1062.88 99.9431 1062.14 98.0331C1062.88 95.6234 1063.28 93.1203 1063.31 90.5991Z" stroke="#1D1D1B" stroke-width="1.32772"/>
<path d="M729.69 125.658C729.613 123.387 728.946 121.176 727.755 119.241C726.564 117.306 724.89 115.715 722.898 114.623C723.764 112.964 724.219 111.121 724.226 109.25C724.226 101.698 716.879 95.5741 707.818 95.5741C705.799 95.5791 703.795 95.9027 701.877 96.5327C700.564 89.679 696.402 84.635 691.411 84.635C686.525 84.635 682.436 89.4746 681.032 96.1079C679.966 95.7712 678.856 95.5923 677.738 95.5768C670.186 95.5768 664.063 102.923 664.063 111.985C664.065 114.34 664.506 116.674 665.361 118.868C663.26 120.766 661.574 123.078 660.409 125.658C659.244 128.238 658.624 131.032 658.59 133.863C658.609 138.32 660.108 142.645 662.852 146.158C659.922 151.622 658.454 157.751 658.59 163.949C658.59 177.542 664.712 188.561 672.265 188.561C674.147 188.519 675.964 187.867 677.443 186.702C680.703 194.294 686.915 199.498 694.137 199.498C700.908 199.498 706.827 194.949 710.23 188.126C715.103 186.47 718.749 179.961 718.749 172.152C718.755 169.979 718.461 167.816 717.875 165.724C722.079 160.605 724.328 154.158 724.219 147.534C724.216 143.954 723.577 140.403 722.334 137.046C724.472 135.986 726.284 134.368 727.579 132.364C728.874 130.359 729.604 128.042 729.69 125.658Z" stroke="#1D1D1B" stroke-width="1.32772"/>
<path d="M694.14 134.673V265.124" stroke="#1D1D1B" stroke-width="1.32772"/>
<path d="M694.14 177.615L710.548 155.739" stroke="#1D1D1B" stroke-width="1.32772"/>
<path d="M694.141 155.74L678.138 134.673" stroke="#1D1D1B" stroke-width="1.32772"/>
<path d="M531.398 265.122H2480.15" stroke="#1D1D1B" stroke-width="1.32772"/>
<path d="M672.262 252.97V265.124H639.446V252.97C639.446 251.843 639.894 250.763 640.691 249.966C641.487 249.169 642.568 248.722 643.695 248.722H668.003C668.562 248.72 669.115 248.829 669.632 249.042C670.149 249.255 670.618 249.567 671.014 249.962C671.41 250.357 671.724 250.826 671.938 251.342C672.152 251.858 672.262 252.411 672.262 252.97Z" stroke="#1D1D1B" stroke-width="1.32772"/>
<path d="M666.793 245.982C666.799 246.917 666.632 247.844 666.301 248.718H645.244C645.021 247.823 644.911 246.904 644.916 245.982C644.916 241.443 647.378 237.778 650.385 237.778C651.023 237.802 651.648 237.967 652.215 238.26C652.782 238.553 653.277 238.967 653.666 239.474C655.063 238.361 656.801 237.762 658.588 237.778C659.666 237.777 660.733 237.988 661.73 238.399C662.726 238.811 663.631 239.415 664.393 240.177C665.156 240.94 665.76 241.845 666.172 242.841C666.583 243.837 666.795 244.904 666.793 245.982Z" stroke="#1D1D1B" stroke-width="1.32772"/>
<path d="M591.011 226.839H605.846C606.054 226.839 606.254 226.922 606.401 227.07C606.549 227.217 606.632 227.417 606.632 227.625V258.869C606.632 259.078 606.549 259.278 606.401 259.425C606.254 259.572 606.054 259.655 605.846 259.655H591.01C590.801 259.655 590.601 259.572 590.454 259.425C590.306 259.278 590.224 259.078 590.224 258.869V227.627C590.224 227.418 590.307 227.218 590.454 227.07C590.602 226.922 590.802 226.839 591.011 226.839Z" stroke="#1D1D1B" stroke-width="1.32772"/>
<path d="M601.161 259.655H595.692V265.124H601.161V259.655Z" stroke="#1D1D1B" stroke-width="1.32772"/>
<path d="M981.275 232.308H921.113V237.777H981.275V232.308Z" stroke="#1D1D1B" stroke-width="1.32772"/>
<path d="M981.275 248.716H921.113V254.185H981.275V248.716Z" stroke="#1D1D1B" stroke-width="1.32772"/>
<path d="M932.053 254.186H926.584V265.125H932.053V254.186Z" stroke="#1D1D1B" stroke-width="1.32772"/>
<path d="M937.522 237.778H932.053V248.718H937.522V237.778Z" stroke="#1D1D1B" stroke-width="1.32772"/>
<path d="M637.382 9.98784C638.614 6.4176 644.364 3.71436 651.298 3.71436C659.131 3.71436 665.477 7.16643 665.477 11.4151C665.477 11.4297 665.47 11.443 665.469 11.4563C666.132 11.4311 666.815 11.4151 667.503 11.4151C679.361 11.4151 688.975 15.3147 688.975 20.1263C688.975 24.938 679.361 28.8362 667.503 28.8362C663.656 28.8606 659.821 28.4098 656.084 27.4938C653.087 28.4011 649.97 28.8536 646.838 28.8362C636.546 28.8362 628.202 24.302 628.202 18.7083C628.205 14.9894 631.9 11.7511 637.382 9.98784Z" stroke="#1D1D1B" stroke-width="1.32772"/>
<path d="M833.06 185.275H742.665V260.605H833.06V185.275Z" stroke="#1D1D1B" stroke-width="1.32772"/>
<path d="M781.836 210.887C781.836 206.891 780.249 203.059 777.424 200.234C774.598 197.408 770.766 195.821 766.771 195.821C762.775 195.821 758.943 197.408 756.118 200.234C753.292 203.059 751.705 206.891 751.705 210.887V225.952H781.836V210.887Z" stroke="#1D1D1B" stroke-width="1.32772"/>
<path d="M766.771 195.821V225.952" stroke="#1D1D1B" stroke-width="1.32772"/>
<path d="M900.856 135.557C900.856 131.561 899.269 127.729 896.443 124.904C893.618 122.079 889.786 120.491 885.79 120.491C881.795 120.491 877.963 122.079 875.137 124.904C872.312 127.729 870.725 131.561 870.725 135.557V150.623H900.856V135.557Z" stroke="#1D1D1B" stroke-width="1.32772"/>
<path d="M885.791 120.491V150.623" stroke="#1D1D1B" stroke-width="1.32772"/>
<path d="M822.514 210.887C822.514 206.891 820.927 203.059 818.102 200.234C815.276 197.408 811.444 195.821 807.448 195.821C803.453 195.821 799.621 197.408 796.795 200.234C793.97 203.059 792.383 206.891 792.383 210.887V256.084H822.514V210.887Z" stroke="#1D1D1B" stroke-width="1.32772"/>
<path d="M807.448 195.821V256.085" stroke="#1D1D1B" stroke-width="1.32772"/>
<path d="M805.941 226.705C805.941 227.152 805.809 227.588 805.561 227.959C805.313 228.33 804.96 228.62 804.548 228.791C804.135 228.961 803.681 229.006 803.244 228.919C802.806 228.832 802.404 228.617 802.088 228.301C801.772 227.986 801.557 227.583 801.47 227.146C801.383 226.708 801.428 226.254 801.599 225.841C801.769 225.429 802.059 225.077 802.43 224.829C802.801 224.58 803.237 224.448 803.684 224.448C803.98 224.448 804.274 224.506 804.548 224.62C804.822 224.733 805.07 224.9 805.28 225.109C805.49 225.319 805.656 225.568 805.769 225.841C805.883 226.115 805.941 226.409 805.941 226.705Z" stroke="#1D1D1B" stroke-width="1.32772"/>
<path d="M813.475 226.705C813.475 227.152 813.343 227.588 813.095 227.959C812.847 228.33 812.494 228.62 812.082 228.791C811.669 228.961 811.216 229.006 810.778 228.919C810.34 228.832 809.938 228.617 809.622 228.301C809.306 227.986 809.091 227.583 809.004 227.146C808.917 226.708 808.962 226.254 809.133 225.841C809.304 225.429 809.593 225.077 809.964 224.829C810.335 224.58 810.772 224.448 811.218 224.448C811.817 224.448 812.391 224.686 812.814 225.109C813.237 225.533 813.475 226.107 813.475 226.705Z" stroke="#1D1D1B" stroke-width="1.32772"/>
<path d="M908.39 185.275H833.061V260.605H908.39V185.275Z" stroke="#1D1D1B" stroke-width="1.32772"/>
<path d="M903.87 195.821H837.581V260.605H903.87V195.821Z" stroke="#1D1D1B" stroke-width="1.32772"/>
<path d="M827.035 256.085H787.863V260.605H827.035V256.085Z" stroke="#1D1D1B" stroke-width="1.32772"/>
<path d="M908.391 260.605H742.666V265.124H908.391V260.605Z" stroke="#1D1D1B" stroke-width="1.32772"/>
<path d="M908.391 109.945H742.666V185.275H908.391V109.945Z" stroke="#1D1D1B" stroke-width="1.32772"/>
<path d="M908.391 180.755H742.666V185.275H908.391V180.755Z" stroke="#1D1D1B" stroke-width="1.32772"/>
<path d="M863.193 146.103H787.863V150.623H863.193V146.103Z" stroke="#1D1D1B" stroke-width="1.32772"/>
<path d="M860.179 150.623H790.876V180.754H860.179V150.623Z" stroke="#1D1D1B" stroke-width="1.32772"/>
<path d="M780.33 135.557C780.33 131.561 778.742 127.729 775.917 124.904C773.092 122.079 769.26 120.491 765.264 120.491C761.268 120.491 757.436 122.079 754.611 124.904C751.786 127.729 750.198 131.561 750.198 135.557V150.623H780.33V135.557Z" stroke="#1D1D1B" stroke-width="1.32772"/>
<path d="M765.264 120.491V150.623" stroke="#1D1D1B" stroke-width="1.32772"/>
<path d="M840.597 133.297C840.597 126.225 833.852 120.491 825.531 120.491C817.211 120.491 810.466 126.225 810.466 133.297V146.103H840.597V133.297Z" stroke="#1D1D1B" stroke-width="1.32772"/>
<path d="M825.528 120.491V146.103" stroke="#1D1D1B" stroke-width="1.32772"/>
<path d="M912.911 109.945H738.146L753.212 61.7345H897.843L912.911 109.945Z" stroke="#1D1D1B" stroke-width="1.32772"/>
<path d="M753.286 144.154L761.306 136.135" stroke="#1D1D1B" stroke-width="1.32772"/>
<path d="M770.405 137.591L775.456 132.541" stroke="#1D1D1B" stroke-width="1.32772"/>
<path d="M815.951 142.066L822.322 135.695" stroke="#1D1D1B" stroke-width="1.32772"/>
<path d="M830.625 132.541L835.733 127.433" stroke="#1D1D1B" stroke-width="1.32772"/>
<path d="M891.76 146.105L898.615 139.25" stroke="#1D1D1B" stroke-width="1.32772"/>
<path d="M876.477 139.332L882.929 132.879" stroke="#1D1D1B" stroke-width="1.32772"/>
<path d="M757.296 219.379L764.274 212.399" stroke="#1D1D1B" stroke-width="1.32772"/>
<path d="M770.405 210.887L775.702 205.59" stroke="#1D1D1B" stroke-width="1.32772"/>
<path d="M840.594 176.454H854.162" stroke="#1D1D1B" stroke-width="1.32772"/>
<path d="M747.461 114.129H762.764" stroke="#1D1D1B" stroke-width="1.32772"/>
<path d="M879.703 189.728H903.87" stroke="#1D1D1B" stroke-width="1.32772"/>
<path d="M747.461 231.3H766.771" stroke="#1D1D1B" stroke-width="1.32772"/>
<path d="M868.224 155.739H887.788" stroke="#1D1D1B" stroke-width="1.32772"/>
<path d="M766.771 155.739H783.244" stroke="#1D1D1B" stroke-width="1.32772"/>
<path d="M841.935 256.085H864.555" stroke="#1D1D1B" stroke-width="1.32772"/>
<path d="M755.112 68.0664H796.083" stroke="#1D1D1B" stroke-width="1.32772"/>
<path d="M819.138 87.2493H860.18" stroke="#1D1D1B" stroke-width="1.32772"/>
<path d="M874.7 102.781H898.615" stroke="#1D1D1B" stroke-width="1.32772"/>
<path d="M772.931 104.443H797.61" stroke="#1D1D1B" stroke-width="1.32772"/>
<path d="M874.7 69.9013H889.927" stroke="#1D1D1B" stroke-width="1.32772"/>
<path d="M628.508 157.966C628.508 163.091 633.43 167.284 639.447 167.284C645.464 167.284 650.386 163.091 650.386 157.966C650.386 153.634 646.886 150 642.182 148.975C640.385 148.54 638.51 148.54 636.713 148.975C632.009 150 628.508 153.634 628.508 157.966Z" stroke="#1D1D1B" stroke-width="1.32772"/>
<path d="M590.224 157.966C590.224 163.091 595.145 167.284 601.163 167.284C607.18 167.284 612.102 163.091 612.102 157.966C612.102 153.634 608.602 150 603.898 148.975C602.101 148.54 600.226 148.54 598.429 148.975C593.723 150 590.224 153.634 590.224 157.966Z" stroke="#1D1D1B" stroke-width="1.32772"/>
<path d="M623.038 143.991H617.569V265.124H623.038V143.991Z" stroke="#1D1D1B" stroke-width="1.32772"/>
<path d="M602.986 139.331C601.868 139.248 600.763 139.609 599.91 140.336C599.057 141.063 598.524 142.096 598.428 143.213V148.974C600.225 148.539 602.1 148.539 603.897 148.974V143.991H636.713V148.976C638.51 148.542 640.384 148.542 642.181 148.976V143.215C642.086 142.099 641.554 141.065 640.701 140.337C639.848 139.61 638.743 139.249 637.625 139.331H602.986Z" stroke="#1D1D1B" stroke-width="1.32772"/>
<path d="M634.243 161.377C634.243 161.377 642.573 167.432 648.248 156.943" stroke="#1D1D1B" stroke-width="1.32772"/>
<path d="M596.435 163.117C596.435 163.117 604.631 167.764 608.814 157.624" stroke="#1D1D1B" stroke-width="1.32772"/>
</g>
</g>
</g>
</g>
<defs>
<clipPath id="clip0_41_731">
<rect width="956" height="314.67" fill="white" transform="translate(0.5 0.329956)"/>
</clipPath>
<clipPath id="clip1_41_731">
<rect width="956" height="314.67" fill="white" transform="translate(0.5 0.329956)"/>
</clipPath>
<clipPath id="clip2_41_731">
<rect width="955.959" height="314.67" fill="white" transform="translate(0.520508 0.329956)"/>
</clipPath>
</defs>
</svg>
