<svg xmlns="http://www.w3.org/2000/svg" width="80" height="80" viewBox="0 0 80 80">
  <g id="Group_39923" data-name="Group 39923" transform="translate(-58.509 -455)">
    <circle id="Ellipse_500" data-name="Ellipse 500" cx="40" cy="40" r="40" transform="translate(58.509 455)" fill="#f7f7f7"/>
    <g id="email" transform="translate(83.233 479.724)">
      <g id="Group_12395" data-name="Group 12395" transform="translate(0 0)">
        <path id="Path_22515" data-name="Path 22515" d="M29.657,30.552H.9a.9.9,0,0,1-.9-.9V12.83a.9.9,0,0,1,.323-.689L14.7.207a.9.9,0,0,1,1.143,0L30.228,12.141a.9.9,0,0,1,.323.689V29.657A.9.9,0,0,1,29.657,30.552Z" transform="translate(0 0)" fill="#ffcd14"/>
        <path id="Path_22516" data-name="Path 22516" d="M270.119,12.141,256.54.206A.815.815,0,0,0,256,0V30.552h13.579a.871.871,0,0,0,.845-.9V12.829A.917.917,0,0,0,270.119,12.141Z" transform="translate(-239.873 0)" fill="#ffb400"/>
      </g>
      <path id="Path_22517" data-name="Path 22517" d="M92.636,78.031H71.914A.882.882,0,0,1,71,77.185V60.845A.882.882,0,0,1,71.914,60H92.636a.882.882,0,0,1,.914.845v16.34A.882.882,0,0,1,92.636,78.031Z" transform="translate(-66.999 -56.619)" fill="#dcf5fa"/>
      <path id="Path_22518" data-name="Path 22518" d="M265.579,60H256V78.031h9.579a.845.845,0,0,0,.845-.845V60.845A.845.845,0,0,0,265.579,60Z" transform="translate(-239.873 -56.619)" fill="#bedce6"/>
      <g id="Group_12397" data-name="Group 12397" transform="translate(9.956 7.086)">
        <path id="Path_22519" data-name="Path 22519" d="M172.072,118.8l-.005-.018a5.353,5.353,0,1,0-8.417,5.767,5.4,5.4,0,0,0,3.144,1.132h.016a.563.563,0,0,0,.015-1.127,4.226,4.226,0,0,1-1.166-8.251,4.226,4.226,0,0,1,5.326,2.8,3.7,3.7,0,0,1-.23,2.459,1.246,1.246,0,0,1-1.145.849.433.433,0,0,1-.294-.137.689.689,0,0,1-.193-.481l.007-1.411c0-.039,0-.077,0-.116s0-.048,0-.073l.013-2.6a.563.563,0,0,0-.561-.566h0a.564.564,0,0,0-.563.561v.194a2.195,2.195,0,0,0-1.3-.414,2.722,2.722,0,0,0-2.567,2.914,2.8,2.8,0,0,0,2.517,3.016,2.2,2.2,0,0,0,1.541-.649,1.767,1.767,0,0,0,.309.422,1.539,1.539,0,0,0,1.093.469,2.368,2.368,0,0,0,2.192-1.56A4.8,4.8,0,0,0,172.072,118.8Zm-5.4,3.366c-.668,0-1.39-.722-1.39-1.889a1.617,1.617,0,0,1,1.441-1.787c.738,0,1.259.69,1.287,1.688v.193C167.965,121.369,167.381,122.165,166.668,122.165Z" transform="translate(-161.59 -114.972)" fill="#696969"/>
        <g id="Group_12396" data-name="Group 12396" transform="translate(5.32 0)">
          <path id="Path_22520" data-name="Path 22520" d="M256.463,285.74a.563.563,0,0,0-.463-.57v1.108A.563.563,0,0,0,256.463,285.74Z" transform="translate(-256 -275.58)" fill="#555"/>
          <path id="Path_22521" data-name="Path 22521" d="M261.156,118.785A5.361,5.361,0,0,0,256,114.976V116.1a4.232,4.232,0,0,1,4.076,3,3.7,3.7,0,0,1-.229,2.459,1.246,1.246,0,0,1-1.145.849.432.432,0,0,1-.294-.137.689.689,0,0,1-.193-.481l.007-1.411c0-.039,0-.077,0-.116s0-.048,0-.073l.013-2.6a.563.563,0,0,0-.561-.566h0a.563.563,0,0,0-.563.561v.194a2.181,2.181,0,0,0-1.108-.406v1.135c.635.109,1.07.762,1.1,1.672v.193A1.808,1.808,0,0,1,256,122.137v1.144a2.224,2.224,0,0,0,1.3-.635,1.766,1.766,0,0,0,.309.422,1.54,1.54,0,0,0,1.093.469,2.368,2.368,0,0,0,2.192-1.56,4.8,4.8,0,0,0,.269-3.175Z" transform="translate(-255.999 -114.976)" fill="#555"/>
        </g>
      </g>
      <path id="Path_22522" data-name="Path 22522" d="M29.657,217.58H.9a.871.871,0,0,1-.9-.845v-15.89a.839.839,0,0,1,.46-.739.941.941,0,0,1,.908.021L15.276,208.3l13.908-8.174a.941.941,0,0,1,.908-.021.839.839,0,0,1,.46.739v15.89A.871.871,0,0,1,29.657,217.58Z" transform="translate(0 -187.028)" fill="#f7ad1a"/>
      <path id="Path_22523" data-name="Path 22523" d="M269.99,200.106a.845.845,0,0,0-.857.021L256,208.3v9.278h13.579a.845.845,0,0,0,.845-.845v-15.89A.845.845,0,0,0,269.99,200.106Z" transform="translate(-239.873 -187.028)" fill="#ffcd14"/>
    </g>
  </g>
</svg>
