<?xml version="1.0" encoding="utf-8"?>
<!-- Generator: Adobe Illustrator 28.0.0, SVG Export Plug-In . SVG Version: 6.00 Build 0)  -->
<svg version="1.1" id="Layer_1" xmlns="http://www.w3.org/2000/svg" xmlns:xlink="http://www.w3.org/1999/xlink" x="0px" y="0px"
	 width="24px" height="17px" viewBox="0 0 24 17" style="enable-background:new 0 0 24 17;" xml:space="preserve">
<style type="text/css">
	.st0{fill:#FFFFFF;}
</style>
<g id="check" transform="translate(0.001 -71.788)">
	<g id="Group_12269" transform="translate(-0.001 71.788)">
		<path id="Path_22109" class="st0" d="M23.4,0.5c-0.7-0.7-1.9-0.7-2.7,0L8.6,12.5L3.2,7.2c-0.7-0.7-1.9-0.7-2.7,0
			c-0.7,0.7-0.7,1.9,0,2.6c0,0,0,0,0,0l6.7,6.6c0.7,0.7,1.9,0.7,2.7,0L23.4,3.2C24.2,2.5,24.2,1.3,23.4,0.5
			C23.5,0.6,23.5,0.6,23.4,0.5z"/>
	</g>
</g>
</svg>
