<svg width="70" height="71" viewBox="0 0 70 71" fill="none" xmlns="http://www.w3.org/2000/svg">
<g clip-path="url(#clip0_10_1485)">
<g clip-path="url(#clip1_10_1485)">
<g clip-path="url(#clip2_10_1485)">
<path d="M70 35.77C70 16.4401 54.33 0.77002 35 0.77002C15.67 0.77002 0 16.4401 0 35.77C0 55.1 15.67 70.77 35 70.77C54.33 70.77 70 55.1 70 35.77Z" fill="#F5F5F5"/>
<path d="M43.522 38.7794C43.4271 38.7797 43.3331 38.7603 43.246 38.7224C42.909 38.5814 35 35.1624 35 28.1774V22.2414C35.0002 22.0929 35.0469 21.9482 35.1336 21.8275C35.2202 21.7068 35.3423 21.6162 35.483 21.5684L43.3 18.9304C43.4476 18.8806 43.6074 18.8806 43.755 18.9304L51.567 21.5684C51.7077 21.6162 51.8298 21.7068 51.9164 21.8275C52.0031 21.9482 52.0498 22.0929 52.05 22.2414V28.1774C52.05 35.1634 44.141 38.5774 43.803 38.7244C43.714 38.7616 43.6184 38.7803 43.522 38.7794ZM36.42 22.7514V28.1774C36.42 33.5534 42.18 36.6404 43.52 37.2884C44.861 36.6394 50.62 33.5414 50.62 28.1774V22.7514L43.52 20.3514L36.42 22.7514Z" fill="black" stroke="#282828" stroke-width="0.3"/>
<path d="M42.8121 31.6773H42.7721C42.673 31.6709 42.5764 31.6439 42.4884 31.5979C42.4004 31.5519 42.323 31.488 42.2611 31.4103L39.4161 27.8593C39.2984 27.7123 39.2438 27.5245 39.2646 27.3372C39.2853 27.1499 39.3796 26.9786 39.5266 26.8608C39.6737 26.7431 39.8615 26.6886 40.0487 26.7093C40.236 26.73 40.4074 26.8243 40.5251 26.9713L42.8701 29.9033L47.2801 25.4933C47.4162 25.3798 47.5898 25.3213 47.7669 25.3293C47.9439 25.3373 48.1116 25.4113 48.2369 25.5366C48.3622 25.6619 48.4361 25.8295 48.4441 26.0066C48.4521 26.1836 48.3936 26.3572 48.2801 26.4933L43.3091 31.4643C43.2445 31.531 43.1673 31.5842 43.082 31.6208C42.9967 31.6573 42.9049 31.6766 42.8121 31.6773Z" fill="black" stroke="#282828" stroke-width="0.3"/>
<mask id="mask0_10_1485" style="mask-type:alpha" maskUnits="userSpaceOnUse" x="15" y="27" width="34" height="33">
<rect width="33" height="33" transform="matrix(-1 0 0 1 48.5 27)" fill="#D9D9D9"/>
</mask>
<g mask="url(#mask0_10_1485)">
<path d="M41.6248 53.8125C43.3788 53.8125 44.8486 53.2198 46.034 52.0343C47.2195 50.8488 47.8123 49.379 47.8123 47.625C47.8123 45.9062 47.2081 44.4365 45.9997 43.2157C44.7913 41.9949 43.333 41.3846 41.6248 41.3846C40.054 41.3846 38.6804 41.9161 37.5039 42.9792C36.3271 44.0421 35.6488 45.3615 35.4689 46.9375H33.0417L35.9924 38.6875H38.1873V37.3125H32.6873V38.6875H34.517L33.5597 41.3846H25.4262L27.7373 35.0386C27.7902 34.8798 27.8783 34.7607 28.0016 34.6814C28.1251 34.6021 28.2662 34.5625 28.4248 34.5625H31.3123V33.1875H28.4248C27.9875 33.1875 27.5869 33.3083 27.223 33.5498C26.8589 33.7914 26.6001 34.1254 26.4468 34.5518L23.9508 41.3688H22.3748C20.6665 41.3688 19.2082 41.9729 17.9998 43.1813C16.7914 44.3897 16.1873 45.848 16.1873 47.5562C16.1873 49.2697 16.7902 50.732 17.9961 51.9432C19.2017 53.1541 20.6613 53.7596 22.3748 53.7596C23.9542 53.7596 25.3199 53.2396 26.4719 52.1996C27.6239 51.1594 28.3102 49.8637 28.5306 48.3125H35.4689C35.6488 49.8937 36.3355 51.2057 37.529 52.2484C38.7222 53.2911 40.0875 53.8125 41.6248 53.8125ZM41.6248 52.4375C40.4737 52.4375 39.4587 52.0739 38.5798 51.3468C37.7012 50.6196 37.1332 49.6082 36.8758 48.3125H40.9373V46.9375H36.8758C37.1332 45.6365 37.7012 44.6238 38.5798 43.8994C39.4587 43.1748 40.4737 42.8125 41.6248 42.8125C42.9874 42.8125 44.1301 43.2739 45.053 44.1968C45.9758 45.1196 46.4373 46.2624 46.4373 47.625C46.4373 48.9471 45.9758 50.0797 45.053 51.023C44.1301 51.966 42.9874 52.4375 41.6248 52.4375ZM31.5133 46.9375H28.5306C28.4513 46.3045 28.2172 45.5607 27.8283 44.7059C27.4397 43.8509 26.8734 43.2021 26.1295 42.7596H33.0733L31.5133 46.9375ZM22.3748 52.4375C21.0121 52.4375 19.8694 51.966 18.9465 51.023C18.0237 50.0797 17.5623 48.9471 17.5623 47.625C17.5623 46.2624 18.0237 45.1196 18.9465 44.1968C19.8694 43.2739 21.0121 42.8125 22.3748 42.8125C22.5792 42.8125 22.7696 42.8169 22.9461 42.8256C23.1223 42.8345 23.295 42.8654 23.4641 42.9184L22.0362 46.7206L23.3266 47.2073L24.6858 43.4048C25.4792 43.8473 26.0944 44.4555 26.5314 45.2294C26.9686 46.0033 27.1873 46.8018 27.1873 47.625C27.1873 48.9471 26.7258 50.0797 25.803 51.023C24.8801 51.966 23.7374 52.4375 22.3748 52.4375Z" fill="#1C1B1F"/>
</g>
</g>
</g>
</g>
<defs>
<clipPath id="clip0_10_1485">
<rect width="70" height="70" fill="white" transform="translate(0 0.77002)"/>
</clipPath>
<clipPath id="clip1_10_1485">
<rect width="70" height="70" fill="white" transform="translate(0 0.77002)"/>
</clipPath>
<clipPath id="clip2_10_1485">
<rect width="70" height="70" fill="white" transform="translate(0 0.77002)"/>
</clipPath>
</defs>
</svg>
