<svg width="21" height="15" viewBox="0 0 21 15" fill="none" xmlns="http://www.w3.org/2000/svg">
<g clip-path="url(#clip0_10_1313)">
<g clip-path="url(#clip1_10_1313)">
<path d="M0.600184 7.87211L0.601081 7.90595C0.601132 7.9076 0.60122 7.90925 0.601334 7.91089C0.608638 8.00797 0.670455 8.08861 0.758291 8.1192C0.763712 8.18549 0.770068 8.25158 0.777308 8.31684C0.697105 8.36396 0.652524 8.45519 0.664908 8.55204L0.669179 8.5855C0.683155 8.68428 0.752503 8.75998 0.845482 8.7823C0.857436 8.84816 0.870249 8.91346 0.883795 8.97753C0.808899 9.03244 0.773821 9.12749 0.795783 9.22248L0.80344 9.25542C0.824985 9.34984 0.902699 9.42 0.99727 9.43357C1.01572 9.49816 1.03498 9.56208 1.0549 9.62473C0.986162 9.68678 0.960864 9.78461 0.992139 9.87677L1.00299 9.90881C1.03349 10.0003 1.1175 10.0624 1.21281 10.0669C1.23744 10.1288 1.26301 10.1906 1.28935 10.2516C1.22733 10.3201 1.21186 10.4198 1.25188 10.5083L1.26579 10.5391C1.30613 10.6273 1.39556 10.6805 1.49025 10.6758C1.52054 10.7343 1.55216 10.7932 1.58485 10.8519C1.52973 10.9262 1.52404 11.027 1.57252 11.1112L1.58941 11.1405C1.64066 11.2259 1.73311 11.269 1.82689 11.2543C1.8627 11.3093 1.89987 11.3647 1.93807 11.4198C1.89012 11.4991 1.89407 11.6002 1.95049 11.6795L1.97009 11.707C1.97085 11.7081 1.97162 11.7091 1.97243 11.7102C2.032 11.7874 2.12831 11.8204 2.21878 11.7968C2.25981 11.8481 2.30205 11.8993 2.34509 11.9501C2.30464 12.0338 2.31821 12.1345 2.3821 12.2082L2.39893 12.2276C2.40003 12.2288 2.40116 12.2301 2.40231 12.2313L2.4078 12.237C2.47504 12.3076 2.57405 12.3309 2.66145 12.2985C2.68469 12.3224 2.70793 12.346 2.73103 12.3691C2.7541 12.3922 2.77772 12.4154 2.80163 12.4387C2.76934 12.526 2.79247 12.625 2.86313 12.6923L2.86925 12.6981C2.87023 12.6991 2.87121 12.7 2.87222 12.7009L2.89202 12.7181C2.96561 12.782 3.06629 12.7955 3.15003 12.755C3.20072 12.798 3.25198 12.8402 3.30328 12.8813C3.27971 12.9718 3.31263 13.0681 3.3899 13.1277C3.39094 13.1285 3.39201 13.1293 3.39307 13.13L3.42056 13.1496C3.49984 13.2061 3.60099 13.21 3.68035 13.1621C3.73544 13.2002 3.79075 13.2374 3.84582 13.2732C3.83119 13.3669 3.87409 13.4594 3.95802 13.5098L3.98885 13.5275C4.0731 13.5761 4.17396 13.5704 4.24819 13.5153C4.30686 13.5479 4.36576 13.5795 4.42438 13.6098C4.41958 13.7044 4.47283 13.794 4.56071 13.8341L4.59181 13.8482C4.68037 13.8883 4.78003 13.8728 4.84849 13.8107C4.90948 13.8371 4.97127 13.8626 5.03328 13.8872C5.03767 13.9826 5.09986 14.0666 5.1919 14.0973L5.22331 14.108C5.31556 14.1392 5.41338 14.1139 5.47543 14.0452C5.53802 14.0651 5.60192 14.0843 5.66655 14.1028C5.68014 14.1973 5.75033 14.2751 5.84506 14.2967L5.8776 14.3043C5.97265 14.3262 6.06773 14.2912 6.12261 14.2162C6.18682 14.2298 6.2521 14.2427 6.31785 14.2546C6.34014 14.3475 6.41569 14.4169 6.51321 14.4307L6.54808 14.4351C6.64487 14.4476 6.73619 14.4029 6.78331 14.3227C6.84857 14.33 6.91465 14.3363 6.98094 14.3418C7.01152 14.4296 7.09217 14.4914 7.18927 14.4987C7.19091 14.4988 7.19255 14.4989 7.19421 14.499L7.22807 14.4999C7.32474 14.5015 7.41191 14.449 7.45089 14.3645C7.51848 14.3655 7.58316 14.3655 7.64928 14.3645C7.68739 14.447 7.77072 14.5 7.86548 14.5C7.8677 14.5 7.86989 14.5 7.87215 14.4999L7.90599 14.499C7.90763 14.4989 7.90928 14.4989 7.91093 14.4987C8.00803 14.4914 8.08867 14.4296 8.11925 14.3418C8.18557 14.3363 8.25163 14.33 8.31689 14.3227C8.36401 14.4029 8.45544 14.4476 8.55207 14.4351L8.58557 14.4309C8.68435 14.4169 8.76004 14.3475 8.78234 14.2546C8.84822 14.2426 8.9135 14.2298 8.97757 14.2163C9.03246 14.2911 9.12753 14.3262 9.22255 14.3043L9.25547 14.2966C9.34985 14.2751 9.42004 14.1973 9.43364 14.1028C9.49802 14.0844 9.56192 14.0651 9.62475 14.0452C9.6868 14.1139 9.78465 14.1393 9.87681 14.108L9.90869 14.0972C10.0004 14.0666 10.0625 13.9826 10.0669 13.8872C10.1288 13.8627 10.1906 13.8371 10.2517 13.8107C10.3202 13.8728 10.4199 13.8882 10.5084 13.8482L10.5391 13.8343C10.6274 13.794 10.6806 13.7044 10.6758 13.6099C10.7343 13.5795 10.7932 13.5479 10.852 13.5153C10.9262 13.5704 11.027 13.5761 11.1112 13.5276L11.1404 13.5108C11.226 13.4595 11.269 13.3669 11.2544 13.2732C11.3095 13.2374 11.3648 13.2002 11.4198 13.1621C11.4992 13.21 11.6003 13.206 11.6796 13.1496L11.7071 13.13C11.7082 13.1293 11.7092 13.1285 11.7102 13.1277C11.7875 13.0681 11.8205 12.9719 11.7969 12.8813C11.8482 12.8403 11.8994 12.7981 11.9501 12.755C12.034 12.7954 12.1346 12.7819 12.2083 12.718L12.2277 12.7012C12.2288 12.7002 12.2299 12.6992 12.231 12.6981L12.2371 12.6923C12.3077 12.6251 12.3309 12.526 12.2986 12.4387C12.3227 12.4152 12.3463 12.392 12.3692 12.3691C12.3922 12.3461 12.4155 12.3225 12.4388 12.2985C12.5262 12.3308 12.6252 12.3076 12.6924 12.2369L12.6979 12.2313C12.6989 12.2302 12.6999 12.2291 12.7009 12.2279L12.7181 12.2082C12.782 12.1345 12.7956 12.0338 12.7551 11.9501C12.7982 11.8993 12.8404 11.8481 12.8814 11.7968C12.9719 11.8204 13.0682 11.7875 13.1278 11.7102C13.1286 11.7091 13.1293 11.7081 13.1301 11.707L13.1497 11.6795C13.2061 11.6002 13.2101 11.4991 13.1622 11.4198C13.2003 11.3648 13.2375 11.3094 13.2733 11.2543C13.3671 11.269 13.4595 11.226 13.5099 11.142L13.5277 11.1112C13.5761 11.0269 13.5705 10.9262 13.5154 10.8519C13.548 10.7932 13.5796 10.7343 13.61 10.6757C13.7049 10.6804 13.7941 10.6273 13.8342 10.5394L13.8483 10.5083C13.8884 10.4198 13.8729 10.3201 13.8108 10.2516C13.8372 10.1905 13.8628 10.1287 13.8874 10.0668C13.9827 10.0624 14.0667 10.0002 14.0974 9.90815L14.1081 9.87656C14.1393 9.78454 14.114 9.68673 14.0453 9.62467C14.0653 9.56182 14.0845 9.49789 14.1029 9.43351C14.1975 9.41991 14.2752 9.34974 14.2968 9.25505L14.3044 9.22244C14.3263 9.12739 14.2913 9.03234 14.2164 8.97746C14.2299 8.9134 14.2427 8.84808 14.2547 8.78219C14.3477 8.7599 14.417 8.68431 14.4308 8.58685L14.4353 8.55197C14.4476 8.4551 14.4031 8.36389 14.3229 8.31677C14.3301 8.25152 14.3365 8.18543 14.3419 8.1191C14.4297 8.08852 14.4915 8.00789 14.4988 7.91082C14.4989 7.90918 14.499 7.90753 14.4991 7.90588L14.5 7.87215C14.5025 7.77454 14.449 7.68817 14.3646 7.64917C14.3651 7.61556 14.3653 7.58239 14.3653 7.54999C14.3653 7.51756 14.3651 7.48439 14.3646 7.45078C14.449 7.41177 14.5025 7.32544 14.5 7.22798L14.4991 7.19409C14.499 7.19244 14.4989 7.1908 14.4988 7.18915C14.4915 7.09207 14.4297 7.01144 14.3419 6.98086C14.3365 6.91448 14.3301 6.84842 14.3229 6.78323C14.4031 6.73611 14.4476 6.64487 14.4353 6.54807L14.431 6.51454C14.417 6.41577 14.3477 6.34006 14.2547 6.31777C14.2428 6.252 14.23 6.18672 14.2164 6.1225C14.2913 6.06762 14.3263 5.97257 14.3044 5.87755L14.2968 5.84478C14.2752 5.75022 14.1974 5.68009 14.1029 5.66646C14.0844 5.60181 14.0652 5.53792 14.0453 5.4753C14.114 5.41325 14.1393 5.31543 14.108 5.22326L14.0972 5.19122C14.0667 5.09976 13.9827 5.03761 13.8874 5.03318C13.8628 4.97136 13.8372 4.90954 13.8108 4.84839C13.8729 4.77988 13.8883 4.68021 13.8483 4.59169L13.8344 4.56094C13.7941 4.47274 13.704 4.41949 13.61 4.42429C13.5796 4.36574 13.548 4.30681 13.5154 4.24811C13.5705 4.17384 13.5762 4.07309 13.5277 3.9889L13.5109 3.95971C13.4595 3.87417 13.3671 3.83111 13.2733 3.84574C13.2375 3.79063 13.2003 3.7353 13.1622 3.68026C13.2101 3.60091 13.2062 3.49977 13.1497 3.4205L13.1301 3.39301C13.1293 3.39193 13.1286 3.39088 13.1278 3.38985C13.0682 3.31258 12.9719 3.27968 12.8814 3.30321C12.8404 3.25193 12.7982 3.20069 12.7551 3.14997C12.7956 3.06618 12.782 2.96548 12.7181 2.89179L12.7009 2.87209C12.7 2.87109 12.6992 2.8701 12.6982 2.86914L12.6926 2.86324C12.6252 2.79241 12.5261 2.7692 12.4388 2.80154C12.4154 2.77744 12.3921 2.75384 12.3692 2.73094C12.3462 2.70799 12.3226 2.68473 12.2986 2.66135C12.3309 2.57397 12.3077 2.4749 12.237 2.40766L12.231 2.4019C12.2299 2.40087 12.2288 2.39984 12.2276 2.39886L12.2083 2.38204C12.1346 2.31811 12.0339 2.30459 11.9501 2.34503C11.8994 2.30197 11.8482 2.25974 11.7969 2.2187C11.8204 2.12819 11.7875 2.03192 11.7103 1.97234C11.7092 1.97153 11.7082 1.97076 11.7071 1.96999L11.6796 1.95042C11.6003 1.89397 11.4992 1.89003 11.4198 1.93796C11.3648 1.89979 11.3094 1.86261 11.2544 1.82679C11.269 1.73315 11.2261 1.64064 11.1421 1.59022L11.1112 1.57239C11.027 1.52396 10.9263 1.52962 10.852 1.58475C10.7932 1.5521 10.7343 1.52047 10.6758 1.49017C10.6806 1.39557 10.6274 1.30602 10.5394 1.26588L10.5084 1.25185C10.4199 1.21178 10.3202 1.22723 10.2517 1.28927C10.1906 1.2629 10.1288 1.2373 10.0669 1.21275C10.0625 1.11741 10.0003 1.03338 9.90826 1.0027L9.87694 0.992043C9.78463 0.960894 9.68681 0.986066 9.62479 1.05482C9.56202 1.03488 9.49812 1.01562 9.43365 0.997224C9.42005 0.902666 9.34986 0.824927 9.25514 0.803281L9.22262 0.795738C9.12755 0.773725 9.03243 0.808816 8.97758 0.883737C8.91334 0.87014 8.84808 0.85734 8.78235 0.845411C8.76006 0.752445 8.6845 0.683123 8.587 0.669299L8.55209 0.664838C8.45522 0.652442 8.36401 0.697023 8.31686 0.777238C8.25176 0.770023 8.1857 0.763654 8.11927 0.758208C8.08869 0.670398 8.00804 0.608556 7.91094 0.601252C7.9093 0.601138 7.90766 0.60105 7.906 0.601012L7.8721 0.600102C7.77541 0.597006 7.68829 0.651014 7.64928 0.735513C7.58241 0.734578 7.51765 0.734578 7.45089 0.735513C7.41188 0.651039 7.32616 0.597663 7.22802 0.600102L7.19422 0.601012C7.19258 0.60105 7.19094 0.601138 7.18928 0.601252C7.09218 0.608556 7.01154 0.670385 6.98096 0.758208C6.91452 0.763654 6.84846 0.770023 6.78332 0.777238C6.7362 0.697023 6.64485 0.652454 6.5481 0.664838L6.51464 0.669109C6.41586 0.683097 6.34015 0.752433 6.31788 0.845398C6.25204 0.85734 6.18676 0.870153 6.12261 0.883724C6.06778 0.808803 5.97276 0.773763 5.87765 0.795712L5.8448 0.803319C5.75033 0.824902 5.68019 0.902641 5.66657 0.997186C5.60204 1.01562 5.53811 1.03488 5.47543 1.05481C5.41336 0.986078 5.31551 0.960806 5.2234 0.992005L5.19141 1.00286C5.09983 1.03338 5.03769 1.1174 5.0333 1.21274C4.97137 1.23731 4.90958 1.26291 4.84852 1.28927C4.78003 1.22718 4.68039 1.21167 4.59179 1.25182L4.56104 1.26573C4.47286 1.30597 4.41959 1.39553 4.42442 1.49014C4.3658 1.52048 4.3069 1.5521 4.24823 1.58471C4.17398 1.52959 4.0732 1.52388 3.98898 1.57238L3.95979 1.58918C3.87427 1.64054 3.83125 1.73312 3.84585 1.82675C3.79078 1.86258 3.73544 1.89975 3.68038 1.93792C3.60098 1.88997 3.49984 1.89395 3.42058 1.95038L3.3931 1.96995C3.39204 1.97074 3.39098 1.97151 3.3899 1.97232C3.31267 2.03194 3.27975 2.12819 3.30331 2.21866C3.25203 2.25971 3.2008 2.30195 3.15008 2.34499C3.06629 2.30451 2.96557 2.31806 2.89189 2.38201L2.87224 2.39912C2.87123 2.40002 2.87024 2.40093 2.86927 2.40186L2.86332 2.40749C2.79252 2.4749 2.76934 2.57397 2.80164 2.66133C2.77773 2.68455 2.75412 2.70781 2.73104 2.73089C2.7081 2.75382 2.68484 2.77743 2.66147 2.80149C2.57409 2.76919 2.47505 2.79235 2.40779 2.86303L2.40198 2.86909C2.40094 2.87019 2.39993 2.8713 2.39895 2.87244L2.38214 2.89176C2.31819 2.96548 2.30465 3.06617 2.3451 3.14995C2.30203 3.20072 2.25978 3.25195 2.21879 3.30317C2.12833 3.27965 2.03204 3.31253 1.97244 3.38981C1.97163 3.39085 1.97086 3.39191 1.97011 3.39297L1.95053 3.42045C1.89409 3.49976 1.89013 3.60089 1.93809 3.68023C1.89989 3.73531 1.86272 3.79065 1.8269 3.8457C1.73315 3.83106 1.64075 3.87397 1.59034 3.95793L1.57248 3.98891C1.52403 4.07303 1.52973 4.17377 1.58487 4.24806C1.55222 4.30681 1.52059 4.36571 1.49028 4.42424C1.39607 4.41928 1.30615 4.47267 1.26599 4.5606L1.25193 4.59161C1.21189 4.68019 1.22733 4.77989 1.28941 4.84838C1.26299 4.90953 1.23741 4.97132 1.21287 5.03314C1.11753 5.03756 1.03349 5.09974 1.00283 5.1918L0.992114 5.22339C0.960902 5.31543 0.9862 5.41323 1.05494 5.47527C1.03504 5.5379 1.01579 5.60178 0.997307 5.66643C0.90275 5.68003 0.824998 5.75022 0.803402 5.84495L0.795833 5.87748C0.773871 5.97253 0.80895 6.06758 0.883871 6.12246C0.870274 6.18668 0.857448 6.25196 0.845532 6.31771C0.752554 6.34002 0.683231 6.41561 0.669406 6.51309L0.664958 6.54797C0.652575 6.64477 0.697156 6.73605 0.777359 6.78319C0.770143 6.84838 0.763762 6.91445 0.758341 6.9808C0.670506 7.0114 0.608689 7.09205 0.601385 7.18911C0.601271 7.19076 0.601183 7.19241 0.601132 7.19405L0.600235 7.22794C0.597695 7.32539 0.651159 7.41175 0.735646 7.45074C0.735153 7.48436 0.734926 7.51753 0.734926 7.54995C0.734926 7.58235 0.735166 7.61552 0.735646 7.64913C0.651122 7.68826 0.597644 7.77461 0.600184 7.87211ZM1.53262 7.55008C1.53262 4.23203 4.23204 1.53261 7.5501 1.53261C10.8681 1.53261 13.5676 4.23202 13.5676 7.55008C13.5676 10.8681 10.8681 13.5675 7.5501 13.5675C4.23204 13.5675 1.53262 10.8681 1.53262 7.55008Z" fill="#080A1C"/>
<mask id="path-2-outside-1_10_1313" maskUnits="userSpaceOnUse" x="0.872559" y="0.872681" width="13" height="13" fill="black">
<rect fill="white" x="0.872559" y="0.872681" width="13" height="13"/>
<path d="M1.91507 8.24474L1.90756 8.24504L1.90882 8.27592L1.91868 8.27552C2.01205 9.00442 2.2445 9.69033 2.58798 10.3062L2.58603 10.3071L2.59877 10.3353L2.60313 10.3333C2.97747 10.996 3.48102 11.5764 4.07946 12.04L4.09138 12.051L4.09236 12.0499C5.05054 12.7878 6.24976 13.2274 7.5499 13.2274C8.5608 13.2274 9.51065 12.9615 10.3337 12.4965L10.3352 12.4998L10.3634 12.4871L10.3608 12.4813C11.0164 12.1062 11.5902 11.604 12.0489 11.0087L12.0499 11.0096C12.0546 10.9989 12.0613 10.989 12.0699 10.9812C12.496 10.4212 12.8205 9.78011 13.0159 9.08535C13.0159 9.08499 13.0158 9.08468 13.0157 9.08433C13.0141 9.06688 13.0199 9.04814 13.0303 9.03266C13.1584 8.55981 13.2273 8.0629 13.2273 7.5501C13.2273 7.30232 13.2111 7.05826 13.1801 6.81876C13.1785 6.81361 13.1773 6.80816 13.1767 6.80234C13.1761 6.79598 13.1768 6.78945 13.178 6.78294L13.1753 6.78305C13.0769 6.05836 12.8414 5.37676 12.4957 4.7652L12.4976 4.76434C12.4876 4.75549 12.48 4.74418 12.476 4.7304C12.2704 4.3726 12.0272 4.03906 11.7514 3.73555L11.7522 3.7346L11.7403 3.7236C11.5191 3.48156 11.2771 3.25887 11.0175 3.05797L11.0179 3.05756C11.0121 3.05397 11.0062 3.05036 11.0007 3.04641C10.9988 3.04509 10.9971 3.04365 10.9954 3.04216C10.9933 3.04038 10.9914 3.03844 10.9895 3.03655C10.6904 2.80807 10.3682 2.60844 10.0268 2.44221L10.0275 2.44035L10.0092 2.43346C9.71727 2.29255 9.41142 2.17602 9.09443 2.08629C9.09054 2.08616 9.08612 2.08592 9.08036 2.08559C9.0774 2.08543 9.07449 2.08505 9.07159 2.08449C9.05736 2.0818 9.04368 2.07662 9.0298 2.07263C9.02017 2.0713 9.01164 2.06766 9.00394 2.06225C8.62969 1.96297 8.24069 1.90033 7.84059 1.88005L7.84056 1.87943L7.83272 1.87974C7.73902 1.87512 7.64476 1.87268 7.54994 1.87268C7.31037 1.87268 7.07426 1.88776 6.8424 1.91671L6.84234 1.91509C6.84103 1.91528 6.83985 1.91583 6.83851 1.91596C6.8296 1.91772 6.82058 1.91878 6.81156 1.91976L6.8116 1.92066C6.0871 2.01517 5.40526 2.24697 4.79272 2.58873L4.79174 2.58656C4.79109 2.58699 4.79046 2.58743 4.78979 2.58781C4.78519 2.59044 4.78041 2.59281 4.77568 2.59524C4.77563 2.59526 4.77559 2.59529 4.77555 2.59531C4.77209 2.59793 4.76838 2.59989 4.76461 2.60164L4.76562 2.60389C4.11428 2.97199 3.54251 3.4649 3.08298 4.05007C3.08157 4.05228 3.08006 4.05459 3.07891 4.05638C3.07723 4.05897 3.07521 4.06228 3.07325 4.06512C3.07284 4.06571 3.07238 4.06628 3.07189 4.06683C3.06701 4.07217 3.06126 4.07676 3.05587 4.08151C3.05568 4.08167 3.05546 4.08183 3.05527 4.08198L3.05699 4.08356C2.62387 4.64362 2.29283 5.2864 2.09236 5.98396L2.08784 5.98225C2.08663 5.9893 2.08523 5.99632 2.08432 6.00341C2.08385 6.00679 2.08271 6.00985 2.08174 6.013L2.08389 6.01381C1.94633 6.50262 1.87256 7.01786 1.87256 7.55004C1.87252 7.78524 1.88717 8.017 1.91507 8.24474ZM2.26566 6.08247L5.01 7.11807L2.07498 7.23849C2.0974 6.84042 2.16245 6.4536 2.26566 6.08247ZM2.62044 5.14876L5.31851 6.16689L6.29388 7.06539L5.08899 7.11482L2.27379 6.05248C2.36291 5.73893 2.47952 5.43687 2.62044 5.14876ZM8.03232 7.30874L8.03329 7.33254L8.01555 7.2933L8.03232 7.30874ZM7.98299 7.22126L7.95634 7.16229L8.02741 7.18911L8.03051 7.26503L7.98299 7.22126ZM8.03668 7.41516L8.03803 7.44793C7.99089 7.22153 7.7903 7.05141 7.54991 7.05141C7.43117 7.05141 7.32226 7.09307 7.23661 7.16237L7.26783 7.12847L7.44326 7.04916L7.63563 7.04126L7.81577 7.10925L7.95736 7.23968L8.03668 7.41516ZM7.0227 7.06642L7.0283 7.20282L6.90392 7.25905L6.82058 7.07471L7.0227 7.06642ZM6.80685 7.04435L6.63473 6.66358L7.01201 6.80595L7.02142 7.03554L6.80685 7.04435ZM7.06238 8.03354L6.84592 8.04243L6.92241 7.83973L7.05649 7.89032L7.06238 8.03354ZM7.06007 7.22239L7.13513 7.18846L7.11057 7.25352L7.06344 7.30469L7.06007 7.22239ZM7.2291 7.02702L7.27506 6.90522L7.3911 6.94901L7.32278 7.02318L7.2291 7.02702ZM7.33687 7.05353L7.36071 7.05256L7.32139 7.07034L7.33687 7.05353ZM7.4223 6.96078L7.49938 6.98987L7.43597 7.01853L7.36647 7.02139L7.4223 6.96078ZM7.19553 7.0284L7.05235 7.03428L7.04346 6.81783L7.24614 6.8943L7.19553 7.0284ZM6.91664 7.28723L7.02965 7.23614L7.03378 7.33688L6.97025 7.40585L6.91664 7.28723ZM6.99997 7.54665L6.96437 7.64097L6.87314 7.55694L6.96133 7.46121L6.99997 7.54665ZM7.03559 7.38059L7.03824 7.44521L7.01542 7.5057L6.98412 7.43647L7.03559 7.38059ZM7.04148 7.5242L7.04325 7.56728L7.03343 7.54554L7.04148 7.5242ZM7.04663 7.64991L7.04948 7.71938L6.98888 7.66357L7.01796 7.58651L7.04663 7.64991ZM7.05513 7.85676L6.93334 7.8108L6.97712 7.69476L7.05128 7.76308L7.05513 7.85676ZM6.9044 7.79989L6.71513 7.72847L6.85219 7.57969L6.95259 7.67218L6.9044 7.79989ZM6.85039 7.53598L6.69106 7.38921L6.88845 7.29998L6.94749 7.43058L6.85039 7.53598ZM7.02556 6.38133L7.33287 6.66442L7.25704 6.86537L7.04208 6.78425L7.02556 6.38133ZM7.3574 6.68702L7.50618 6.82407L7.41368 6.92448L7.28598 6.87629L7.3574 6.68702ZM7.52894 6.84504L7.62468 6.93324L7.53924 6.97187L7.44491 6.93627L7.52894 6.84504ZM7.5403 7.0053L7.56168 7.01336L7.51854 7.01513L7.5403 7.0053ZM7.64939 6.95599L7.70528 7.00749L7.64066 7.01014L7.58013 6.98731L7.64939 6.95599ZM7.54988 6.82229L7.69664 6.66296L7.78587 6.86035L7.65529 6.91939L7.54988 6.82229ZM7.79861 6.88853L7.8497 7.00155L7.74896 7.00568L7.67999 6.94215L7.79861 6.88853ZM7.73744 7.0371L7.755 7.05327L7.7146 7.03803L7.73744 7.0371ZM7.86345 7.03193L7.89739 7.107L7.83231 7.08245L7.78113 7.0353L7.86345 7.03193ZM7.91538 7.14685L7.92479 7.16765L7.89306 7.13843L7.91538 7.14685ZM7.47333 8.04762L7.53384 8.07046L7.46459 8.10176L7.4087 8.05026L7.47333 8.04762ZM7.58584 8.04695L7.5737 8.05245L7.56229 8.04815C7.57018 8.04795 7.57803 8.04751 7.58584 8.04695ZM7.91821 7.89669L7.94742 7.86499L7.939 7.88729L7.91821 7.89669ZM7.92357 7.92821L7.89673 7.99931L7.82081 8.00242L7.86465 7.95483L7.92357 7.92821ZM7.96342 7.91019L8.05529 7.86865L8.06039 7.99259L7.93032 7.99792L7.96342 7.91019ZM8.13686 7.363L8.06271 7.2947L8.05887 7.201L8.18066 7.24696L8.13686 7.363ZM8.14961 7.41678L8.24083 7.50081L8.15264 7.59654L8.11401 7.5111L8.14961 7.41678ZM7.97884 7.86929L8.0034 7.80422L8.05054 7.75304L8.05392 7.83534L7.97884 7.86929ZM8.0516 7.02421L8.26805 7.01532L8.19156 7.21801L8.05749 7.16741L8.0516 7.02421ZM8.20957 7.25786L8.39884 7.32928L8.26177 7.47808L8.16138 7.38559L8.20957 7.25786ZM8.26359 7.52177L8.42292 7.66854L8.22553 7.75778L8.16649 7.62719L8.26359 7.52177ZM8.19733 7.77052L8.08433 7.82161L8.0802 7.72086L8.14371 7.65191L8.19733 7.77052ZM8.07839 7.67714L8.07574 7.6125L8.09855 7.55204L8.12985 7.62127L8.07839 7.67714ZM8.0725 7.53352L8.07075 7.4905L8.08055 7.51219L8.0725 7.53352ZM8.06735 7.40788L8.06449 7.33838L8.12507 7.3942L8.09598 7.47127L8.06735 7.40788ZM8.07052 8.23992L7.86785 8.16343L7.91844 8.02935L8.06164 8.02347L8.07052 8.23992ZM7.83892 8.15253L7.72288 8.10874L7.79119 8.03458L7.88487 8.03074L7.83892 8.15253ZM7.7771 8.00422L7.75325 8.00519L7.79257 7.98741L7.7771 8.00422ZM7.69167 8.09697L7.6146 8.06788L7.67798 8.03922L7.74748 8.03636L7.69167 8.09697ZM8.04781 7.68653L8.04875 7.70933L8.03259 7.72687L8.04781 7.68653ZM8.04155 6.77872L8.4223 6.6066L8.27992 6.98391L8.05035 6.99332L8.04155 6.77872ZM8.30161 7.01394L8.70455 6.99742L8.42143 7.30476L8.2205 7.22893L8.30161 7.01394ZM8.43005 7.34106L8.82099 7.48859L8.45352 7.65471L8.28452 7.49904L8.43005 7.34106ZM8.74424 7.96454L8.32674 7.98167L8.23826 7.78595L8.44763 7.6913L8.74424 7.96454ZM8.47924 8.39416L8.10197 8.2518L8.09256 8.02222L8.30712 8.01341L8.47924 8.39416ZM8.09129 7.99133L8.0857 7.85492L8.21006 7.7987L8.2934 7.98304L8.09129 7.99133ZM8.08843 8.67642L7.7811 8.39331L7.85693 8.19237L8.0719 8.2735L8.08843 8.67642ZM7.75658 8.37073L7.6078 8.23368L7.7003 8.13327L7.828 8.18146L7.75658 8.37073ZM7.58504 8.21271L7.4893 8.12451L7.57475 8.08588L7.66908 8.12148L7.58504 8.21271ZM7.56408 8.23546L7.41732 8.39478L7.32808 8.19739L7.45867 8.13835L7.56408 8.23546ZM7.31536 8.16922L7.26426 8.05619L7.36499 8.05206L7.43396 8.11559L7.31536 8.16922ZM7.25052 8.02582L7.21658 7.95074L7.28163 7.97529L7.33283 8.02245L7.25052 8.02582ZM7.19041 7.12954L7.21725 7.05844L7.29316 7.05532L7.24932 7.1029L7.19041 7.12954ZM7.16655 7.19275L7.17497 7.17045L7.19574 7.16106L7.16655 7.19275ZM7.21178 7.91587L7.19857 7.91088L7.19248 7.8974C7.19869 7.90379 7.20525 7.90982 7.21178 7.91587ZM7.15057 7.14755L7.0587 7.18908L7.05362 7.06516L7.18369 7.05983L7.15057 7.14755ZM7.15763 7.89544L7.08658 7.86863L7.08347 7.79273L7.13099 7.83651L7.15763 7.89544ZM7.08167 7.74902L7.0807 7.72526L7.09842 7.76445L7.08167 7.74902ZM7.06617 7.3712L7.06523 7.3484L7.0814 7.33086L7.06617 7.3712ZM7.07245 8.27903L6.69169 8.45116L6.83406 8.07385L7.06364 8.06444L7.07245 8.27903ZM6.81236 8.04381L6.40943 8.06033L6.69255 7.75299L6.89349 7.82882L6.81236 8.04381ZM6.68392 7.71668L6.29298 7.56915L6.66043 7.40303L6.82943 7.55871L6.68392 7.71668ZM6.36974 7.09321L6.78723 7.07608L6.87571 7.2718L6.66635 7.36645L6.36974 7.09321ZM6.33758 7.06359L5.39582 6.19607L6.59377 6.64812L6.7735 7.04571L6.33758 7.06359ZM6.13721 5.563L6.99337 6.35169L7.01063 6.77239L6.61671 6.62373L6.13721 5.563ZM6.97127 5.05835L7.49869 6.22505L7.34465 6.63324L7.02376 6.33765L6.97127 5.05835ZM7.51669 6.26489L7.6828 6.63234L7.52712 6.80134L7.36916 6.65583L7.51669 6.26489ZM7.53215 6.22395L7.94313 5.13486L7.99085 6.29793L7.70558 6.60761L7.53215 6.22395ZM7.99263 6.34165L8.00976 6.75916L7.81408 6.84763L7.71943 6.63825L7.99263 6.34165ZM8.01114 6.79246L8.01943 6.99459L7.88306 7.00018L7.82682 6.87578L8.01114 6.79246ZM8.0207 7.02548L8.02603 7.15556L7.93832 7.12247L7.89678 7.03057L8.0207 7.02548ZM8.02229 6.30947L8.8898 5.36774L8.43773 6.5657L8.04018 6.74541L8.02229 6.30947ZM8.46213 6.58858L9.52286 6.10908L8.73416 6.96527L8.31347 6.98253L8.46213 6.58858ZM8.74826 6.99562L10.0276 6.94313L8.86084 7.47057L8.45264 7.31653L8.74826 6.99562ZM8.86191 7.50402L9.95106 7.91502L8.78794 7.96274L8.47825 7.67746L8.86191 7.50402ZM9.71814 8.86167L8.5202 8.40961L8.34047 8.01205L8.7764 7.99417L9.71814 8.86167ZM8.97676 9.49473L8.12061 8.70607L8.10335 8.28536L8.49726 8.434L8.97676 9.49473ZM8.14271 9.99943L7.6153 8.83272L7.76933 8.42452L8.09023 8.72013L8.14271 9.99943ZM7.59728 8.79287L7.43117 8.42542L7.58684 8.25644L7.74481 8.40194L7.59728 8.79287ZM7.58182 8.83381L7.17086 9.92285L7.12313 8.75979L7.40839 8.45015L7.58182 8.83381ZM7.12135 8.71608L7.10422 8.29859L7.29989 8.21014L7.39454 8.41951L7.12135 8.71608ZM7.10285 8.26528L7.09456 8.06315L7.23092 8.05755L7.28717 8.18196L7.10285 8.26528ZM7.0933 8.03227L7.08797 7.90219L7.17565 7.93528L7.2172 8.02719L7.0933 8.03227ZM7.09171 8.74827L6.2242 9.69001L6.67626 8.49207L7.07383 8.31234L7.09171 8.74827ZM6.65184 8.46917L5.5911 8.94868L6.3798 8.09249L6.80049 8.07523L6.65184 8.46917ZM6.36571 8.06213L5.08635 8.11462L6.25313 7.58718L6.66133 7.74122L6.36571 8.06213ZM6.25207 7.55372L5.16294 7.14273L6.32604 7.09501L6.63574 7.38028L6.25207 7.55372ZM3.19973 4.21513L5.25774 6.11092L2.63428 5.12094C2.79354 4.8 2.98326 4.49681 3.19973 4.21513ZM3.87724 3.4812L6.07902 5.5094L6.57576 6.60828L5.33506 6.14009L3.21862 4.1905C3.41711 3.93517 3.63756 3.69774 3.87724 3.4812ZM4.84553 2.78079L6.04644 5.43736L3.90048 3.46056C4.18971 3.20219 4.50633 2.97389 4.84553 2.78079ZM5.75513 2.36809L6.93722 4.983L6.99158 6.30799L6.10464 5.49097L4.87263 2.76561C5.15262 2.60833 5.44767 2.47489 5.75513 2.36809ZM6.93383 4.90038L5.78442 2.35776C6.11638 2.24459 6.46261 2.16262 6.81955 2.11491L6.93383 4.90038ZM7.93989 5.05587L7.51413 6.1841L6.96787 4.97573L6.85031 2.11058C7.07944 2.08128 7.31295 2.06616 7.5499 2.06616C7.63962 2.06616 7.72881 2.06848 7.81749 2.07276L7.93989 5.05587ZM8.99503 2.25976L7.96782 4.98185L7.84854 2.07436C8.24315 2.09565 8.62671 2.15903 8.99503 2.25976ZM9.93035 2.61025L8.91898 5.29038L8.02048 6.26575L7.97105 5.06084L9.025 2.26789C9.33897 2.35568 9.6417 2.47059 9.93035 2.61025ZM10.8613 3.18185L8.97496 5.22962L9.95818 2.6241C10.2779 2.78104 10.5802 2.9682 10.8613 3.18185ZM11.5989 3.85543L9.57641 6.05094L8.47756 6.54768L8.94577 5.30697L10.886 3.20076C11.1424 3.39788 11.3811 3.61694 11.5989 3.85543ZM12.3036 4.81811L9.6485 6.01835L11.6197 3.87846C11.8792 4.16584 12.1089 4.48065 12.3036 4.81811ZM12.7214 5.72542L10.1029 6.90911L8.77789 6.96348L9.59495 6.07651L12.3189 4.84513C12.4778 5.12425 12.6128 5.41862 12.7214 5.72542ZM12.9811 6.79102L10.1854 6.90571L12.7317 5.75467C12.8471 6.08688 12.9314 6.43348 12.9811 6.79102ZM13.0284 7.78877L10.03 7.91178L8.90175 7.48601L10.1102 6.93974L12.9854 6.82177C13.0172 7.06013 13.0339 7.30319 13.0339 7.55009C13.0339 7.63009 13.0318 7.7096 13.0284 7.78877ZM12.8459 8.97437L10.104 7.93969L13.0272 7.81976C13.0078 8.21712 12.9458 8.60339 12.8459 8.97437ZM12.499 9.91105L9.79543 8.89083L8.82008 7.99236L10.025 7.94293L12.8378 9.00434C12.7512 9.31868 12.6375 9.62187 12.499 9.91105ZM11.925 10.8525L9.85622 8.94682L12.4855 9.93901C12.3283 10.2625 12.1402 10.5683 11.925 10.8525ZM11.2528 11.5914L9.03495 9.54834L8.53819 8.44946L9.77891 8.91764L11.9061 10.8772C11.7095 11.134 11.4909 11.3731 11.2528 11.5914ZM10.2808 12.3044L9.06754 9.62041L11.23 11.6124C10.9401 11.8753 10.622 12.1077 10.2808 12.3044ZM9.37343 12.7219L8.17677 10.0748L8.12241 8.74978L9.00934 9.56681L10.2538 12.3197C9.97464 12.4785 9.68024 12.6134 9.37343 12.7219ZM8.29608 12.9831L8.18015 10.1574L9.34414 12.7323C9.0083 12.8489 8.65777 12.9336 8.29608 12.9831ZM7.29827 13.028L7.17411 10.0018L7.59984 8.87364L8.1461 10.082L8.2653 12.9874C8.03109 13.018 7.79234 13.034 7.54991 13.034C7.46555 13.034 7.38171 13.0318 7.29827 13.028ZM6.10311 12.84L7.14618 10.0759L7.26726 13.0268C6.8664 13.0064 6.47692 12.9423 6.10311 12.84ZM5.1679 12.4891L6.19499 9.76736L7.0935 8.79198L7.14294 9.99686L6.07314 12.8318C5.7592 12.7439 5.45651 12.6289 5.1679 12.4891ZM4.22388 11.9071L6.13901 9.82814L5.14007 12.4753C4.81538 12.3158 4.50872 12.1251 4.22388 11.9071ZM3.4885 11.2312L5.53755 9.00681L6.63639 8.51006L6.16819 9.75077L4.19924 11.8882C3.94352 11.6902 3.70553 11.4704 3.4885 11.2312ZM2.77999 10.2534L5.46547 9.0394L3.46785 11.2079C3.2061 10.9161 2.97508 10.5963 2.77999 10.2534ZM2.36747 9.34369L5.01108 8.14865L6.33609 8.09429L5.51902 8.98127L2.76484 10.2263C2.60759 9.94627 2.4742 9.65118 2.36747 9.34369ZM2.11288 8.26754L4.92853 8.15202L2.35714 9.31442C2.2428 8.97882 2.16028 8.62864 2.11288 8.26754ZM2.06593 7.5501C2.06593 7.456 2.06833 7.36245 2.07305 7.26951L5.08395 7.14598L6.21223 7.57174L5.0038 8.11801L2.10883 8.23679C2.0806 8.01178 2.06593 7.78262 2.06593 7.5501Z"/>
</mask>
<path d="M1.91507 8.24474L1.90756 8.24504L1.90882 8.27592L1.91868 8.27552C2.01205 9.00442 2.2445 9.69033 2.58798 10.3062L2.58603 10.3071L2.59877 10.3353L2.60313 10.3333C2.97747 10.996 3.48102 11.5764 4.07946 12.04L4.09138 12.051L4.09236 12.0499C5.05054 12.7878 6.24976 13.2274 7.5499 13.2274C8.5608 13.2274 9.51065 12.9615 10.3337 12.4965L10.3352 12.4998L10.3634 12.4871L10.3608 12.4813C11.0164 12.1062 11.5902 11.604 12.0489 11.0087L12.0499 11.0096C12.0546 10.9989 12.0613 10.989 12.0699 10.9812C12.496 10.4212 12.8205 9.78011 13.0159 9.08535C13.0159 9.08499 13.0158 9.08468 13.0157 9.08433C13.0141 9.06688 13.0199 9.04814 13.0303 9.03266C13.1584 8.55981 13.2273 8.0629 13.2273 7.5501C13.2273 7.30232 13.2111 7.05826 13.1801 6.81876C13.1785 6.81361 13.1773 6.80816 13.1767 6.80234C13.1761 6.79598 13.1768 6.78945 13.178 6.78294L13.1753 6.78305C13.0769 6.05836 12.8414 5.37676 12.4957 4.7652L12.4976 4.76434C12.4876 4.75549 12.48 4.74418 12.476 4.7304C12.2704 4.3726 12.0272 4.03906 11.7514 3.73555L11.7522 3.7346L11.7403 3.7236C11.5191 3.48156 11.2771 3.25887 11.0175 3.05797L11.0179 3.05756C11.0121 3.05397 11.0062 3.05036 11.0007 3.04641C10.9988 3.04509 10.9971 3.04365 10.9954 3.04216C10.9933 3.04038 10.9914 3.03844 10.9895 3.03655C10.6904 2.80807 10.3682 2.60844 10.0268 2.44221L10.0275 2.44035L10.0092 2.43346C9.71727 2.29255 9.41142 2.17602 9.09443 2.08629C9.09054 2.08616 9.08612 2.08592 9.08036 2.08559C9.0774 2.08543 9.07449 2.08505 9.07159 2.08449C9.05736 2.0818 9.04368 2.07662 9.0298 2.07263C9.02017 2.0713 9.01164 2.06766 9.00394 2.06225C8.62969 1.96297 8.24069 1.90033 7.84059 1.88005L7.84056 1.87943L7.83272 1.87974C7.73902 1.87512 7.64476 1.87268 7.54994 1.87268C7.31037 1.87268 7.07426 1.88776 6.8424 1.91671L6.84234 1.91509C6.84103 1.91528 6.83985 1.91583 6.83851 1.91596C6.8296 1.91772 6.82058 1.91878 6.81156 1.91976L6.8116 1.92066C6.0871 2.01517 5.40526 2.24697 4.79272 2.58873L4.79174 2.58656C4.79109 2.58699 4.79046 2.58743 4.78979 2.58781C4.78519 2.59044 4.78041 2.59281 4.77568 2.59524C4.77563 2.59526 4.77559 2.59529 4.77555 2.59531C4.77209 2.59793 4.76838 2.59989 4.76461 2.60164L4.76562 2.60389C4.11428 2.97199 3.54251 3.4649 3.08298 4.05007C3.08157 4.05228 3.08006 4.05459 3.07891 4.05638C3.07723 4.05897 3.07521 4.06228 3.07325 4.06512C3.07284 4.06571 3.07238 4.06628 3.07189 4.06683C3.06701 4.07217 3.06126 4.07676 3.05587 4.08151C3.05568 4.08167 3.05546 4.08183 3.05527 4.08198L3.05699 4.08356C2.62387 4.64362 2.29283 5.2864 2.09236 5.98396L2.08784 5.98225C2.08663 5.9893 2.08523 5.99632 2.08432 6.00341C2.08385 6.00679 2.08271 6.00985 2.08174 6.013L2.08389 6.01381C1.94633 6.50262 1.87256 7.01786 1.87256 7.55004C1.87252 7.78524 1.88717 8.017 1.91507 8.24474ZM2.26566 6.08247L5.01 7.11807L2.07498 7.23849C2.0974 6.84042 2.16245 6.4536 2.26566 6.08247ZM2.62044 5.14876L5.31851 6.16689L6.29388 7.06539L5.08899 7.11482L2.27379 6.05248C2.36291 5.73893 2.47952 5.43687 2.62044 5.14876ZM8.03232 7.30874L8.03329 7.33254L8.01555 7.2933L8.03232 7.30874ZM7.98299 7.22126L7.95634 7.16229L8.02741 7.18911L8.03051 7.26503L7.98299 7.22126ZM8.03668 7.41516L8.03803 7.44793C7.99089 7.22153 7.7903 7.05141 7.54991 7.05141C7.43117 7.05141 7.32226 7.09307 7.23661 7.16237L7.26783 7.12847L7.44326 7.04916L7.63563 7.04126L7.81577 7.10925L7.95736 7.23968L8.03668 7.41516ZM7.0227 7.06642L7.0283 7.20282L6.90392 7.25905L6.82058 7.07471L7.0227 7.06642ZM6.80685 7.04435L6.63473 6.66358L7.01201 6.80595L7.02142 7.03554L6.80685 7.04435ZM7.06238 8.03354L6.84592 8.04243L6.92241 7.83973L7.05649 7.89032L7.06238 8.03354ZM7.06007 7.22239L7.13513 7.18846L7.11057 7.25352L7.06344 7.30469L7.06007 7.22239ZM7.2291 7.02702L7.27506 6.90522L7.3911 6.94901L7.32278 7.02318L7.2291 7.02702ZM7.33687 7.05353L7.36071 7.05256L7.32139 7.07034L7.33687 7.05353ZM7.4223 6.96078L7.49938 6.98987L7.43597 7.01853L7.36647 7.02139L7.4223 6.96078ZM7.19553 7.0284L7.05235 7.03428L7.04346 6.81783L7.24614 6.8943L7.19553 7.0284ZM6.91664 7.28723L7.02965 7.23614L7.03378 7.33688L6.97025 7.40585L6.91664 7.28723ZM6.99997 7.54665L6.96437 7.64097L6.87314 7.55694L6.96133 7.46121L6.99997 7.54665ZM7.03559 7.38059L7.03824 7.44521L7.01542 7.5057L6.98412 7.43647L7.03559 7.38059ZM7.04148 7.5242L7.04325 7.56728L7.03343 7.54554L7.04148 7.5242ZM7.04663 7.64991L7.04948 7.71938L6.98888 7.66357L7.01796 7.58651L7.04663 7.64991ZM7.05513 7.85676L6.93334 7.8108L6.97712 7.69476L7.05128 7.76308L7.05513 7.85676ZM6.9044 7.79989L6.71513 7.72847L6.85219 7.57969L6.95259 7.67218L6.9044 7.79989ZM6.85039 7.53598L6.69106 7.38921L6.88845 7.29998L6.94749 7.43058L6.85039 7.53598ZM7.02556 6.38133L7.33287 6.66442L7.25704 6.86537L7.04208 6.78425L7.02556 6.38133ZM7.3574 6.68702L7.50618 6.82407L7.41368 6.92448L7.28598 6.87629L7.3574 6.68702ZM7.52894 6.84504L7.62468 6.93324L7.53924 6.97187L7.44491 6.93627L7.52894 6.84504ZM7.5403 7.0053L7.56168 7.01336L7.51854 7.01513L7.5403 7.0053ZM7.64939 6.95599L7.70528 7.00749L7.64066 7.01014L7.58013 6.98731L7.64939 6.95599ZM7.54988 6.82229L7.69664 6.66296L7.78587 6.86035L7.65529 6.91939L7.54988 6.82229ZM7.79861 6.88853L7.8497 7.00155L7.74896 7.00568L7.67999 6.94215L7.79861 6.88853ZM7.73744 7.0371L7.755 7.05327L7.7146 7.03803L7.73744 7.0371ZM7.86345 7.03193L7.89739 7.107L7.83231 7.08245L7.78113 7.0353L7.86345 7.03193ZM7.91538 7.14685L7.92479 7.16765L7.89306 7.13843L7.91538 7.14685ZM7.47333 8.04762L7.53384 8.07046L7.46459 8.10176L7.4087 8.05026L7.47333 8.04762ZM7.58584 8.04695L7.5737 8.05245L7.56229 8.04815C7.57018 8.04795 7.57803 8.04751 7.58584 8.04695ZM7.91821 7.89669L7.94742 7.86499L7.939 7.88729L7.91821 7.89669ZM7.92357 7.92821L7.89673 7.99931L7.82081 8.00242L7.86465 7.95483L7.92357 7.92821ZM7.96342 7.91019L8.05529 7.86865L8.06039 7.99259L7.93032 7.99792L7.96342 7.91019ZM8.13686 7.363L8.06271 7.2947L8.05887 7.201L8.18066 7.24696L8.13686 7.363ZM8.14961 7.41678L8.24083 7.50081L8.15264 7.59654L8.11401 7.5111L8.14961 7.41678ZM7.97884 7.86929L8.0034 7.80422L8.05054 7.75304L8.05392 7.83534L7.97884 7.86929ZM8.0516 7.02421L8.26805 7.01532L8.19156 7.21801L8.05749 7.16741L8.0516 7.02421ZM8.20957 7.25786L8.39884 7.32928L8.26177 7.47808L8.16138 7.38559L8.20957 7.25786ZM8.26359 7.52177L8.42292 7.66854L8.22553 7.75778L8.16649 7.62719L8.26359 7.52177ZM8.19733 7.77052L8.08433 7.82161L8.0802 7.72086L8.14371 7.65191L8.19733 7.77052ZM8.07839 7.67714L8.07574 7.6125L8.09855 7.55204L8.12985 7.62127L8.07839 7.67714ZM8.0725 7.53352L8.07075 7.4905L8.08055 7.51219L8.0725 7.53352ZM8.06735 7.40788L8.06449 7.33838L8.12507 7.3942L8.09598 7.47127L8.06735 7.40788ZM8.07052 8.23992L7.86785 8.16343L7.91844 8.02935L8.06164 8.02347L8.07052 8.23992ZM7.83892 8.15253L7.72288 8.10874L7.79119 8.03458L7.88487 8.03074L7.83892 8.15253ZM7.7771 8.00422L7.75325 8.00519L7.79257 7.98741L7.7771 8.00422ZM7.69167 8.09697L7.6146 8.06788L7.67798 8.03922L7.74748 8.03636L7.69167 8.09697ZM8.04781 7.68653L8.04875 7.70933L8.03259 7.72687L8.04781 7.68653ZM8.04155 6.77872L8.4223 6.6066L8.27992 6.98391L8.05035 6.99332L8.04155 6.77872ZM8.30161 7.01394L8.70455 6.99742L8.42143 7.30476L8.2205 7.22893L8.30161 7.01394ZM8.43005 7.34106L8.82099 7.48859L8.45352 7.65471L8.28452 7.49904L8.43005 7.34106ZM8.74424 7.96454L8.32674 7.98167L8.23826 7.78595L8.44763 7.6913L8.74424 7.96454ZM8.47924 8.39416L8.10197 8.2518L8.09256 8.02222L8.30712 8.01341L8.47924 8.39416ZM8.09129 7.99133L8.0857 7.85492L8.21006 7.7987L8.2934 7.98304L8.09129 7.99133ZM8.08843 8.67642L7.7811 8.39331L7.85693 8.19237L8.0719 8.2735L8.08843 8.67642ZM7.75658 8.37073L7.6078 8.23368L7.7003 8.13327L7.828 8.18146L7.75658 8.37073ZM7.58504 8.21271L7.4893 8.12451L7.57475 8.08588L7.66908 8.12148L7.58504 8.21271ZM7.56408 8.23546L7.41732 8.39478L7.32808 8.19739L7.45867 8.13835L7.56408 8.23546ZM7.31536 8.16922L7.26426 8.05619L7.36499 8.05206L7.43396 8.11559L7.31536 8.16922ZM7.25052 8.02582L7.21658 7.95074L7.28163 7.97529L7.33283 8.02245L7.25052 8.02582ZM7.19041 7.12954L7.21725 7.05844L7.29316 7.05532L7.24932 7.1029L7.19041 7.12954ZM7.16655 7.19275L7.17497 7.17045L7.19574 7.16106L7.16655 7.19275ZM7.21178 7.91587L7.19857 7.91088L7.19248 7.8974C7.19869 7.90379 7.20525 7.90982 7.21178 7.91587ZM7.15057 7.14755L7.0587 7.18908L7.05362 7.06516L7.18369 7.05983L7.15057 7.14755ZM7.15763 7.89544L7.08658 7.86863L7.08347 7.79273L7.13099 7.83651L7.15763 7.89544ZM7.08167 7.74902L7.0807 7.72526L7.09842 7.76445L7.08167 7.74902ZM7.06617 7.3712L7.06523 7.3484L7.0814 7.33086L7.06617 7.3712ZM7.07245 8.27903L6.69169 8.45116L6.83406 8.07385L7.06364 8.06444L7.07245 8.27903ZM6.81236 8.04381L6.40943 8.06033L6.69255 7.75299L6.89349 7.82882L6.81236 8.04381ZM6.68392 7.71668L6.29298 7.56915L6.66043 7.40303L6.82943 7.55871L6.68392 7.71668ZM6.36974 7.09321L6.78723 7.07608L6.87571 7.2718L6.66635 7.36645L6.36974 7.09321ZM6.33758 7.06359L5.39582 6.19607L6.59377 6.64812L6.7735 7.04571L6.33758 7.06359ZM6.13721 5.563L6.99337 6.35169L7.01063 6.77239L6.61671 6.62373L6.13721 5.563ZM6.97127 5.05835L7.49869 6.22505L7.34465 6.63324L7.02376 6.33765L6.97127 5.05835ZM7.51669 6.26489L7.6828 6.63234L7.52712 6.80134L7.36916 6.65583L7.51669 6.26489ZM7.53215 6.22395L7.94313 5.13486L7.99085 6.29793L7.70558 6.60761L7.53215 6.22395ZM7.99263 6.34165L8.00976 6.75916L7.81408 6.84763L7.71943 6.63825L7.99263 6.34165ZM8.01114 6.79246L8.01943 6.99459L7.88306 7.00018L7.82682 6.87578L8.01114 6.79246ZM8.0207 7.02548L8.02603 7.15556L7.93832 7.12247L7.89678 7.03057L8.0207 7.02548ZM8.02229 6.30947L8.8898 5.36774L8.43773 6.5657L8.04018 6.74541L8.02229 6.30947ZM8.46213 6.58858L9.52286 6.10908L8.73416 6.96527L8.31347 6.98253L8.46213 6.58858ZM8.74826 6.99562L10.0276 6.94313L8.86084 7.47057L8.45264 7.31653L8.74826 6.99562ZM8.86191 7.50402L9.95106 7.91502L8.78794 7.96274L8.47825 7.67746L8.86191 7.50402ZM9.71814 8.86167L8.5202 8.40961L8.34047 8.01205L8.7764 7.99417L9.71814 8.86167ZM8.97676 9.49473L8.12061 8.70607L8.10335 8.28536L8.49726 8.434L8.97676 9.49473ZM8.14271 9.99943L7.6153 8.83272L7.76933 8.42452L8.09023 8.72013L8.14271 9.99943ZM7.59728 8.79287L7.43117 8.42542L7.58684 8.25644L7.74481 8.40194L7.59728 8.79287ZM7.58182 8.83381L7.17086 9.92285L7.12313 8.75979L7.40839 8.45015L7.58182 8.83381ZM7.12135 8.71608L7.10422 8.29859L7.29989 8.21014L7.39454 8.41951L7.12135 8.71608ZM7.10285 8.26528L7.09456 8.06315L7.23092 8.05755L7.28717 8.18196L7.10285 8.26528ZM7.0933 8.03227L7.08797 7.90219L7.17565 7.93528L7.2172 8.02719L7.0933 8.03227ZM7.09171 8.74827L6.2242 9.69001L6.67626 8.49207L7.07383 8.31234L7.09171 8.74827ZM6.65184 8.46917L5.5911 8.94868L6.3798 8.09249L6.80049 8.07523L6.65184 8.46917ZM6.36571 8.06213L5.08635 8.11462L6.25313 7.58718L6.66133 7.74122L6.36571 8.06213ZM6.25207 7.55372L5.16294 7.14273L6.32604 7.09501L6.63574 7.38028L6.25207 7.55372ZM3.19973 4.21513L5.25774 6.11092L2.63428 5.12094C2.79354 4.8 2.98326 4.49681 3.19973 4.21513ZM3.87724 3.4812L6.07902 5.5094L6.57576 6.60828L5.33506 6.14009L3.21862 4.1905C3.41711 3.93517 3.63756 3.69774 3.87724 3.4812ZM4.84553 2.78079L6.04644 5.43736L3.90048 3.46056C4.18971 3.20219 4.50633 2.97389 4.84553 2.78079ZM5.75513 2.36809L6.93722 4.983L6.99158 6.30799L6.10464 5.49097L4.87263 2.76561C5.15262 2.60833 5.44767 2.47489 5.75513 2.36809ZM6.93383 4.90038L5.78442 2.35776C6.11638 2.24459 6.46261 2.16262 6.81955 2.11491L6.93383 4.90038ZM7.93989 5.05587L7.51413 6.1841L6.96787 4.97573L6.85031 2.11058C7.07944 2.08128 7.31295 2.06616 7.5499 2.06616C7.63962 2.06616 7.72881 2.06848 7.81749 2.07276L7.93989 5.05587ZM8.99503 2.25976L7.96782 4.98185L7.84854 2.07436C8.24315 2.09565 8.62671 2.15903 8.99503 2.25976ZM9.93035 2.61025L8.91898 5.29038L8.02048 6.26575L7.97105 5.06084L9.025 2.26789C9.33897 2.35568 9.6417 2.47059 9.93035 2.61025ZM10.8613 3.18185L8.97496 5.22962L9.95818 2.6241C10.2779 2.78104 10.5802 2.9682 10.8613 3.18185ZM11.5989 3.85543L9.57641 6.05094L8.47756 6.54768L8.94577 5.30697L10.886 3.20076C11.1424 3.39788 11.3811 3.61694 11.5989 3.85543ZM12.3036 4.81811L9.6485 6.01835L11.6197 3.87846C11.8792 4.16584 12.1089 4.48065 12.3036 4.81811ZM12.7214 5.72542L10.1029 6.90911L8.77789 6.96348L9.59495 6.07651L12.3189 4.84513C12.4778 5.12425 12.6128 5.41862 12.7214 5.72542ZM12.9811 6.79102L10.1854 6.90571L12.7317 5.75467C12.8471 6.08688 12.9314 6.43348 12.9811 6.79102ZM13.0284 7.78877L10.03 7.91178L8.90175 7.48601L10.1102 6.93974L12.9854 6.82177C13.0172 7.06013 13.0339 7.30319 13.0339 7.55009C13.0339 7.63009 13.0318 7.7096 13.0284 7.78877ZM12.8459 8.97437L10.104 7.93969L13.0272 7.81976C13.0078 8.21712 12.9458 8.60339 12.8459 8.97437ZM12.499 9.91105L9.79543 8.89083L8.82008 7.99236L10.025 7.94293L12.8378 9.00434C12.7512 9.31868 12.6375 9.62187 12.499 9.91105ZM11.925 10.8525L9.85622 8.94682L12.4855 9.93901C12.3283 10.2625 12.1402 10.5683 11.925 10.8525ZM11.2528 11.5914L9.03495 9.54834L8.53819 8.44946L9.77891 8.91764L11.9061 10.8772C11.7095 11.134 11.4909 11.3731 11.2528 11.5914ZM10.2808 12.3044L9.06754 9.62041L11.23 11.6124C10.9401 11.8753 10.622 12.1077 10.2808 12.3044ZM9.37343 12.7219L8.17677 10.0748L8.12241 8.74978L9.00934 9.56681L10.2538 12.3197C9.97464 12.4785 9.68024 12.6134 9.37343 12.7219ZM8.29608 12.9831L8.18015 10.1574L9.34414 12.7323C9.0083 12.8489 8.65777 12.9336 8.29608 12.9831ZM7.29827 13.028L7.17411 10.0018L7.59984 8.87364L8.1461 10.082L8.2653 12.9874C8.03109 13.018 7.79234 13.034 7.54991 13.034C7.46555 13.034 7.38171 13.0318 7.29827 13.028ZM6.10311 12.84L7.14618 10.0759L7.26726 13.0268C6.8664 13.0064 6.47692 12.9423 6.10311 12.84ZM5.1679 12.4891L6.19499 9.76736L7.0935 8.79198L7.14294 9.99686L6.07314 12.8318C5.7592 12.7439 5.45651 12.6289 5.1679 12.4891ZM4.22388 11.9071L6.13901 9.82814L5.14007 12.4753C4.81538 12.3158 4.50872 12.1251 4.22388 11.9071ZM3.4885 11.2312L5.53755 9.00681L6.63639 8.51006L6.16819 9.75077L4.19924 11.8882C3.94352 11.6902 3.70553 11.4704 3.4885 11.2312ZM2.77999 10.2534L5.46547 9.0394L3.46785 11.2079C3.2061 10.9161 2.97508 10.5963 2.77999 10.2534ZM2.36747 9.34369L5.01108 8.14865L6.33609 8.09429L5.51902 8.98127L2.76484 10.2263C2.60759 9.94627 2.4742 9.65118 2.36747 9.34369ZM2.11288 8.26754L4.92853 8.15202L2.35714 9.31442C2.2428 8.97882 2.16028 8.62864 2.11288 8.26754ZM2.06593 7.5501C2.06593 7.456 2.06833 7.36245 2.07305 7.26951L5.08395 7.14598L6.21223 7.57174L5.0038 8.11801L2.10883 8.23679C2.0806 8.01178 2.06593 7.78262 2.06593 7.5501Z" fill="#080A1C"/>
<path d="M1.91507 8.24474L1.90756 8.24504L1.90882 8.27592L1.91868 8.27552C2.01205 9.00442 2.2445 9.69033 2.58798 10.3062L2.58603 10.3071L2.59877 10.3353L2.60313 10.3333C2.97747 10.996 3.48102 11.5764 4.07946 12.04L4.09138 12.051L4.09236 12.0499C5.05054 12.7878 6.24976 13.2274 7.5499 13.2274C8.5608 13.2274 9.51065 12.9615 10.3337 12.4965L10.3352 12.4998L10.3634 12.4871L10.3608 12.4813C11.0164 12.1062 11.5902 11.604 12.0489 11.0087L12.0499 11.0096C12.0546 10.9989 12.0613 10.989 12.0699 10.9812C12.496 10.4212 12.8205 9.78011 13.0159 9.08535C13.0159 9.08499 13.0158 9.08468 13.0157 9.08433C13.0141 9.06688 13.0199 9.04814 13.0303 9.03266C13.1584 8.55981 13.2273 8.0629 13.2273 7.5501C13.2273 7.30232 13.2111 7.05826 13.1801 6.81876C13.1785 6.81361 13.1773 6.80816 13.1767 6.80234C13.1761 6.79598 13.1768 6.78945 13.178 6.78294L13.1753 6.78305C13.0769 6.05836 12.8414 5.37676 12.4957 4.7652L12.4976 4.76434C12.4876 4.75549 12.48 4.74418 12.476 4.7304C12.2704 4.3726 12.0272 4.03906 11.7514 3.73555L11.7522 3.7346L11.7403 3.7236C11.5191 3.48156 11.2771 3.25887 11.0175 3.05797L11.0179 3.05756C11.0121 3.05397 11.0062 3.05036 11.0007 3.04641C10.9988 3.04509 10.9971 3.04365 10.9954 3.04216C10.9933 3.04038 10.9914 3.03844 10.9895 3.03655C10.6904 2.80807 10.3682 2.60844 10.0268 2.44221L10.0275 2.44035L10.0092 2.43346C9.71727 2.29255 9.41142 2.17602 9.09443 2.08629C9.09054 2.08616 9.08612 2.08592 9.08036 2.08559C9.0774 2.08543 9.07449 2.08505 9.07159 2.08449C9.05736 2.0818 9.04368 2.07662 9.0298 2.07263C9.02017 2.0713 9.01164 2.06766 9.00394 2.06225C8.62969 1.96297 8.24069 1.90033 7.84059 1.88005L7.84056 1.87943L7.83272 1.87974C7.73902 1.87512 7.64476 1.87268 7.54994 1.87268C7.31037 1.87268 7.07426 1.88776 6.8424 1.91671L6.84234 1.91509C6.84103 1.91528 6.83985 1.91583 6.83851 1.91596C6.8296 1.91772 6.82058 1.91878 6.81156 1.91976L6.8116 1.92066C6.0871 2.01517 5.40526 2.24697 4.79272 2.58873L4.79174 2.58656C4.79109 2.58699 4.79046 2.58743 4.78979 2.58781C4.78519 2.59044 4.78041 2.59281 4.77568 2.59524C4.77563 2.59526 4.77559 2.59529 4.77555 2.59531C4.77209 2.59793 4.76838 2.59989 4.76461 2.60164L4.76562 2.60389C4.11428 2.97199 3.54251 3.4649 3.08298 4.05007C3.08157 4.05228 3.08006 4.05459 3.07891 4.05638C3.07723 4.05897 3.07521 4.06228 3.07325 4.06512C3.07284 4.06571 3.07238 4.06628 3.07189 4.06683C3.06701 4.07217 3.06126 4.07676 3.05587 4.08151C3.05568 4.08167 3.05546 4.08183 3.05527 4.08198L3.05699 4.08356C2.62387 4.64362 2.29283 5.2864 2.09236 5.98396L2.08784 5.98225C2.08663 5.9893 2.08523 5.99632 2.08432 6.00341C2.08385 6.00679 2.08271 6.00985 2.08174 6.013L2.08389 6.01381C1.94633 6.50262 1.87256 7.01786 1.87256 7.55004C1.87252 7.78524 1.88717 8.017 1.91507 8.24474ZM2.26566 6.08247L5.01 7.11807L2.07498 7.23849C2.0974 6.84042 2.16245 6.4536 2.26566 6.08247ZM2.62044 5.14876L5.31851 6.16689L6.29388 7.06539L5.08899 7.11482L2.27379 6.05248C2.36291 5.73893 2.47952 5.43687 2.62044 5.14876ZM8.03232 7.30874L8.03329 7.33254L8.01555 7.2933L8.03232 7.30874ZM7.98299 7.22126L7.95634 7.16229L8.02741 7.18911L8.03051 7.26503L7.98299 7.22126ZM8.03668 7.41516L8.03803 7.44793C7.99089 7.22153 7.7903 7.05141 7.54991 7.05141C7.43117 7.05141 7.32226 7.09307 7.23661 7.16237L7.26783 7.12847L7.44326 7.04916L7.63563 7.04126L7.81577 7.10925L7.95736 7.23968L8.03668 7.41516ZM7.0227 7.06642L7.0283 7.20282L6.90392 7.25905L6.82058 7.07471L7.0227 7.06642ZM6.80685 7.04435L6.63473 6.66358L7.01201 6.80595L7.02142 7.03554L6.80685 7.04435ZM7.06238 8.03354L6.84592 8.04243L6.92241 7.83973L7.05649 7.89032L7.06238 8.03354ZM7.06007 7.22239L7.13513 7.18846L7.11057 7.25352L7.06344 7.30469L7.06007 7.22239ZM7.2291 7.02702L7.27506 6.90522L7.3911 6.94901L7.32278 7.02318L7.2291 7.02702ZM7.33687 7.05353L7.36071 7.05256L7.32139 7.07034L7.33687 7.05353ZM7.4223 6.96078L7.49938 6.98987L7.43597 7.01853L7.36647 7.02139L7.4223 6.96078ZM7.19553 7.0284L7.05235 7.03428L7.04346 6.81783L7.24614 6.8943L7.19553 7.0284ZM6.91664 7.28723L7.02965 7.23614L7.03378 7.33688L6.97025 7.40585L6.91664 7.28723ZM6.99997 7.54665L6.96437 7.64097L6.87314 7.55694L6.96133 7.46121L6.99997 7.54665ZM7.03559 7.38059L7.03824 7.44521L7.01542 7.5057L6.98412 7.43647L7.03559 7.38059ZM7.04148 7.5242L7.04325 7.56728L7.03343 7.54554L7.04148 7.5242ZM7.04663 7.64991L7.04948 7.71938L6.98888 7.66357L7.01796 7.58651L7.04663 7.64991ZM7.05513 7.85676L6.93334 7.8108L6.97712 7.69476L7.05128 7.76308L7.05513 7.85676ZM6.9044 7.79989L6.71513 7.72847L6.85219 7.57969L6.95259 7.67218L6.9044 7.79989ZM6.85039 7.53598L6.69106 7.38921L6.88845 7.29998L6.94749 7.43058L6.85039 7.53598ZM7.02556 6.38133L7.33287 6.66442L7.25704 6.86537L7.04208 6.78425L7.02556 6.38133ZM7.3574 6.68702L7.50618 6.82407L7.41368 6.92448L7.28598 6.87629L7.3574 6.68702ZM7.52894 6.84504L7.62468 6.93324L7.53924 6.97187L7.44491 6.93627L7.52894 6.84504ZM7.5403 7.0053L7.56168 7.01336L7.51854 7.01513L7.5403 7.0053ZM7.64939 6.95599L7.70528 7.00749L7.64066 7.01014L7.58013 6.98731L7.64939 6.95599ZM7.54988 6.82229L7.69664 6.66296L7.78587 6.86035L7.65529 6.91939L7.54988 6.82229ZM7.79861 6.88853L7.8497 7.00155L7.74896 7.00568L7.67999 6.94215L7.79861 6.88853ZM7.73744 7.0371L7.755 7.05327L7.7146 7.03803L7.73744 7.0371ZM7.86345 7.03193L7.89739 7.107L7.83231 7.08245L7.78113 7.0353L7.86345 7.03193ZM7.91538 7.14685L7.92479 7.16765L7.89306 7.13843L7.91538 7.14685ZM7.47333 8.04762L7.53384 8.07046L7.46459 8.10176L7.4087 8.05026L7.47333 8.04762ZM7.58584 8.04695L7.5737 8.05245L7.56229 8.04815C7.57018 8.04795 7.57803 8.04751 7.58584 8.04695ZM7.91821 7.89669L7.94742 7.86499L7.939 7.88729L7.91821 7.89669ZM7.92357 7.92821L7.89673 7.99931L7.82081 8.00242L7.86465 7.95483L7.92357 7.92821ZM7.96342 7.91019L8.05529 7.86865L8.06039 7.99259L7.93032 7.99792L7.96342 7.91019ZM8.13686 7.363L8.06271 7.2947L8.05887 7.201L8.18066 7.24696L8.13686 7.363ZM8.14961 7.41678L8.24083 7.50081L8.15264 7.59654L8.11401 7.5111L8.14961 7.41678ZM7.97884 7.86929L8.0034 7.80422L8.05054 7.75304L8.05392 7.83534L7.97884 7.86929ZM8.0516 7.02421L8.26805 7.01532L8.19156 7.21801L8.05749 7.16741L8.0516 7.02421ZM8.20957 7.25786L8.39884 7.32928L8.26177 7.47808L8.16138 7.38559L8.20957 7.25786ZM8.26359 7.52177L8.42292 7.66854L8.22553 7.75778L8.16649 7.62719L8.26359 7.52177ZM8.19733 7.77052L8.08433 7.82161L8.0802 7.72086L8.14371 7.65191L8.19733 7.77052ZM8.07839 7.67714L8.07574 7.6125L8.09855 7.55204L8.12985 7.62127L8.07839 7.67714ZM8.0725 7.53352L8.07075 7.4905L8.08055 7.51219L8.0725 7.53352ZM8.06735 7.40788L8.06449 7.33838L8.12507 7.3942L8.09598 7.47127L8.06735 7.40788ZM8.07052 8.23992L7.86785 8.16343L7.91844 8.02935L8.06164 8.02347L8.07052 8.23992ZM7.83892 8.15253L7.72288 8.10874L7.79119 8.03458L7.88487 8.03074L7.83892 8.15253ZM7.7771 8.00422L7.75325 8.00519L7.79257 7.98741L7.7771 8.00422ZM7.69167 8.09697L7.6146 8.06788L7.67798 8.03922L7.74748 8.03636L7.69167 8.09697ZM8.04781 7.68653L8.04875 7.70933L8.03259 7.72687L8.04781 7.68653ZM8.04155 6.77872L8.4223 6.6066L8.27992 6.98391L8.05035 6.99332L8.04155 6.77872ZM8.30161 7.01394L8.70455 6.99742L8.42143 7.30476L8.2205 7.22893L8.30161 7.01394ZM8.43005 7.34106L8.82099 7.48859L8.45352 7.65471L8.28452 7.49904L8.43005 7.34106ZM8.74424 7.96454L8.32674 7.98167L8.23826 7.78595L8.44763 7.6913L8.74424 7.96454ZM8.47924 8.39416L8.10197 8.2518L8.09256 8.02222L8.30712 8.01341L8.47924 8.39416ZM8.09129 7.99133L8.0857 7.85492L8.21006 7.7987L8.2934 7.98304L8.09129 7.99133ZM8.08843 8.67642L7.7811 8.39331L7.85693 8.19237L8.0719 8.2735L8.08843 8.67642ZM7.75658 8.37073L7.6078 8.23368L7.7003 8.13327L7.828 8.18146L7.75658 8.37073ZM7.58504 8.21271L7.4893 8.12451L7.57475 8.08588L7.66908 8.12148L7.58504 8.21271ZM7.56408 8.23546L7.41732 8.39478L7.32808 8.19739L7.45867 8.13835L7.56408 8.23546ZM7.31536 8.16922L7.26426 8.05619L7.36499 8.05206L7.43396 8.11559L7.31536 8.16922ZM7.25052 8.02582L7.21658 7.95074L7.28163 7.97529L7.33283 8.02245L7.25052 8.02582ZM7.19041 7.12954L7.21725 7.05844L7.29316 7.05532L7.24932 7.1029L7.19041 7.12954ZM7.16655 7.19275L7.17497 7.17045L7.19574 7.16106L7.16655 7.19275ZM7.21178 7.91587L7.19857 7.91088L7.19248 7.8974C7.19869 7.90379 7.20525 7.90982 7.21178 7.91587ZM7.15057 7.14755L7.0587 7.18908L7.05362 7.06516L7.18369 7.05983L7.15057 7.14755ZM7.15763 7.89544L7.08658 7.86863L7.08347 7.79273L7.13099 7.83651L7.15763 7.89544ZM7.08167 7.74902L7.0807 7.72526L7.09842 7.76445L7.08167 7.74902ZM7.06617 7.3712L7.06523 7.3484L7.0814 7.33086L7.06617 7.3712ZM7.07245 8.27903L6.69169 8.45116L6.83406 8.07385L7.06364 8.06444L7.07245 8.27903ZM6.81236 8.04381L6.40943 8.06033L6.69255 7.75299L6.89349 7.82882L6.81236 8.04381ZM6.68392 7.71668L6.29298 7.56915L6.66043 7.40303L6.82943 7.55871L6.68392 7.71668ZM6.36974 7.09321L6.78723 7.07608L6.87571 7.2718L6.66635 7.36645L6.36974 7.09321ZM6.33758 7.06359L5.39582 6.19607L6.59377 6.64812L6.7735 7.04571L6.33758 7.06359ZM6.13721 5.563L6.99337 6.35169L7.01063 6.77239L6.61671 6.62373L6.13721 5.563ZM6.97127 5.05835L7.49869 6.22505L7.34465 6.63324L7.02376 6.33765L6.97127 5.05835ZM7.51669 6.26489L7.6828 6.63234L7.52712 6.80134L7.36916 6.65583L7.51669 6.26489ZM7.53215 6.22395L7.94313 5.13486L7.99085 6.29793L7.70558 6.60761L7.53215 6.22395ZM7.99263 6.34165L8.00976 6.75916L7.81408 6.84763L7.71943 6.63825L7.99263 6.34165ZM8.01114 6.79246L8.01943 6.99459L7.88306 7.00018L7.82682 6.87578L8.01114 6.79246ZM8.0207 7.02548L8.02603 7.15556L7.93832 7.12247L7.89678 7.03057L8.0207 7.02548ZM8.02229 6.30947L8.8898 5.36774L8.43773 6.5657L8.04018 6.74541L8.02229 6.30947ZM8.46213 6.58858L9.52286 6.10908L8.73416 6.96527L8.31347 6.98253L8.46213 6.58858ZM8.74826 6.99562L10.0276 6.94313L8.86084 7.47057L8.45264 7.31653L8.74826 6.99562ZM8.86191 7.50402L9.95106 7.91502L8.78794 7.96274L8.47825 7.67746L8.86191 7.50402ZM9.71814 8.86167L8.5202 8.40961L8.34047 8.01205L8.7764 7.99417L9.71814 8.86167ZM8.97676 9.49473L8.12061 8.70607L8.10335 8.28536L8.49726 8.434L8.97676 9.49473ZM8.14271 9.99943L7.6153 8.83272L7.76933 8.42452L8.09023 8.72013L8.14271 9.99943ZM7.59728 8.79287L7.43117 8.42542L7.58684 8.25644L7.74481 8.40194L7.59728 8.79287ZM7.58182 8.83381L7.17086 9.92285L7.12313 8.75979L7.40839 8.45015L7.58182 8.83381ZM7.12135 8.71608L7.10422 8.29859L7.29989 8.21014L7.39454 8.41951L7.12135 8.71608ZM7.10285 8.26528L7.09456 8.06315L7.23092 8.05755L7.28717 8.18196L7.10285 8.26528ZM7.0933 8.03227L7.08797 7.90219L7.17565 7.93528L7.2172 8.02719L7.0933 8.03227ZM7.09171 8.74827L6.2242 9.69001L6.67626 8.49207L7.07383 8.31234L7.09171 8.74827ZM6.65184 8.46917L5.5911 8.94868L6.3798 8.09249L6.80049 8.07523L6.65184 8.46917ZM6.36571 8.06213L5.08635 8.11462L6.25313 7.58718L6.66133 7.74122L6.36571 8.06213ZM6.25207 7.55372L5.16294 7.14273L6.32604 7.09501L6.63574 7.38028L6.25207 7.55372ZM3.19973 4.21513L5.25774 6.11092L2.63428 5.12094C2.79354 4.8 2.98326 4.49681 3.19973 4.21513ZM3.87724 3.4812L6.07902 5.5094L6.57576 6.60828L5.33506 6.14009L3.21862 4.1905C3.41711 3.93517 3.63756 3.69774 3.87724 3.4812ZM4.84553 2.78079L6.04644 5.43736L3.90048 3.46056C4.18971 3.20219 4.50633 2.97389 4.84553 2.78079ZM5.75513 2.36809L6.93722 4.983L6.99158 6.30799L6.10464 5.49097L4.87263 2.76561C5.15262 2.60833 5.44767 2.47489 5.75513 2.36809ZM6.93383 4.90038L5.78442 2.35776C6.11638 2.24459 6.46261 2.16262 6.81955 2.11491L6.93383 4.90038ZM7.93989 5.05587L7.51413 6.1841L6.96787 4.97573L6.85031 2.11058C7.07944 2.08128 7.31295 2.06616 7.5499 2.06616C7.63962 2.06616 7.72881 2.06848 7.81749 2.07276L7.93989 5.05587ZM8.99503 2.25976L7.96782 4.98185L7.84854 2.07436C8.24315 2.09565 8.62671 2.15903 8.99503 2.25976ZM9.93035 2.61025L8.91898 5.29038L8.02048 6.26575L7.97105 5.06084L9.025 2.26789C9.33897 2.35568 9.6417 2.47059 9.93035 2.61025ZM10.8613 3.18185L8.97496 5.22962L9.95818 2.6241C10.2779 2.78104 10.5802 2.9682 10.8613 3.18185ZM11.5989 3.85543L9.57641 6.05094L8.47756 6.54768L8.94577 5.30697L10.886 3.20076C11.1424 3.39788 11.3811 3.61694 11.5989 3.85543ZM12.3036 4.81811L9.6485 6.01835L11.6197 3.87846C11.8792 4.16584 12.1089 4.48065 12.3036 4.81811ZM12.7214 5.72542L10.1029 6.90911L8.77789 6.96348L9.59495 6.07651L12.3189 4.84513C12.4778 5.12425 12.6128 5.41862 12.7214 5.72542ZM12.9811 6.79102L10.1854 6.90571L12.7317 5.75467C12.8471 6.08688 12.9314 6.43348 12.9811 6.79102ZM13.0284 7.78877L10.03 7.91178L8.90175 7.48601L10.1102 6.93974L12.9854 6.82177C13.0172 7.06013 13.0339 7.30319 13.0339 7.55009C13.0339 7.63009 13.0318 7.7096 13.0284 7.78877ZM12.8459 8.97437L10.104 7.93969L13.0272 7.81976C13.0078 8.21712 12.9458 8.60339 12.8459 8.97437ZM12.499 9.91105L9.79543 8.89083L8.82008 7.99236L10.025 7.94293L12.8378 9.00434C12.7512 9.31868 12.6375 9.62187 12.499 9.91105ZM11.925 10.8525L9.85622 8.94682L12.4855 9.93901C12.3283 10.2625 12.1402 10.5683 11.925 10.8525ZM11.2528 11.5914L9.03495 9.54834L8.53819 8.44946L9.77891 8.91764L11.9061 10.8772C11.7095 11.134 11.4909 11.3731 11.2528 11.5914ZM10.2808 12.3044L9.06754 9.62041L11.23 11.6124C10.9401 11.8753 10.622 12.1077 10.2808 12.3044ZM9.37343 12.7219L8.17677 10.0748L8.12241 8.74978L9.00934 9.56681L10.2538 12.3197C9.97464 12.4785 9.68024 12.6134 9.37343 12.7219ZM8.29608 12.9831L8.18015 10.1574L9.34414 12.7323C9.0083 12.8489 8.65777 12.9336 8.29608 12.9831ZM7.29827 13.028L7.17411 10.0018L7.59984 8.87364L8.1461 10.082L8.2653 12.9874C8.03109 13.018 7.79234 13.034 7.54991 13.034C7.46555 13.034 7.38171 13.0318 7.29827 13.028ZM6.10311 12.84L7.14618 10.0759L7.26726 13.0268C6.8664 13.0064 6.47692 12.9423 6.10311 12.84ZM5.1679 12.4891L6.19499 9.76736L7.0935 8.79198L7.14294 9.99686L6.07314 12.8318C5.7592 12.7439 5.45651 12.6289 5.1679 12.4891ZM4.22388 11.9071L6.13901 9.82814L5.14007 12.4753C4.81538 12.3158 4.50872 12.1251 4.22388 11.9071ZM3.4885 11.2312L5.53755 9.00681L6.63639 8.51006L6.16819 9.75077L4.19924 11.8882C3.94352 11.6902 3.70553 11.4704 3.4885 11.2312ZM2.77999 10.2534L5.46547 9.0394L3.46785 11.2079C3.2061 10.9161 2.97508 10.5963 2.77999 10.2534ZM2.36747 9.34369L5.01108 8.14865L6.33609 8.09429L5.51902 8.98127L2.76484 10.2263C2.60759 9.94627 2.4742 9.65118 2.36747 9.34369ZM2.11288 8.26754L4.92853 8.15202L2.35714 9.31442C2.2428 8.97882 2.16028 8.62864 2.11288 8.26754ZM2.06593 7.5501C2.06593 7.456 2.06833 7.36245 2.07305 7.26951L5.08395 7.14598L6.21223 7.57174L5.0038 8.11801L2.10883 8.23679C2.0806 8.01178 2.06593 7.78262 2.06593 7.5501Z" stroke="black" stroke-width="0.2" mask="url(#path-2-outside-1_10_1313)"/>
<path d="M7.37732 8.02117L7.37036 8.01477C7.37579 8.01687 7.38127 8.01885 7.38679 8.02078L7.37732 8.02117Z" fill="#080A1C"/>
</g>
</g>
<defs>
<clipPath id="clip0_10_1313">
<rect width="20" height="14" fill="white" transform="translate(0.590088 0.530029)"/>
</clipPath>
<clipPath id="clip1_10_1313">
<rect width="16" height="16" fill="white" transform="translate(0.5 0.5)"/>
</clipPath>
</defs>
</svg>
