<svg width="19" height="16" viewBox="0 0 19 16" fill="none" xmlns="http://www.w3.org/2000/svg">
<g clip-path="url(#clip0_10_1339)">
<mask id="mask0_10_1339" style="mask-type:alpha" maskUnits="userSpaceOnUse" x="0" y="-1" width="17" height="18">
<rect y="-0.199951" width="16.5" height="16.5" fill="#D9D9D9"/>
</mask>
<g mask="url(#mask0_10_1339)">
<path d="M3.56847 14.7135C2.67552 14.7135 1.91486 14.3989 1.28648 13.7696C0.657995 13.1403 0.34375 12.3792 0.34375 11.4862C0.34375 10.5934 0.658396 9.83271 1.28769 9.20422C1.91709 8.57584 2.67821 8.26166 3.57105 8.26166C4.46388 8.26166 5.22454 8.5763 5.85303 9.2056C6.48141 9.83489 6.79559 10.596 6.79559 11.489C6.79559 12.3818 6.48095 13.1425 5.85166 13.7709C5.22236 14.3993 4.4613 14.7135 3.56847 14.7135ZM3.56813 13.6823C4.17736 13.6823 4.69574 13.4691 5.12325 13.0427C5.55076 12.6162 5.76452 12.0984 5.76452 11.4891C5.76452 10.8799 5.55128 10.3615 5.1248 9.934C4.69832 9.50661 4.18046 9.29291 3.57122 9.29291C2.96209 9.29291 2.44378 9.50609 2.01627 9.93245C1.58876 10.3589 1.375 10.8768 1.375 11.486C1.375 12.0953 1.58824 12.6136 2.01472 13.0412C2.44108 13.4686 2.95889 13.6823 3.56813 13.6823ZM7.73438 12.6907V9.27297L5.44191 7.40744C5.32194 7.29904 5.2309 7.17226 5.1688 7.02708C5.10669 6.8819 5.07564 6.72922 5.07564 6.56903C5.07564 6.40884 5.10847 6.25777 5.17413 6.1158C5.23978 5.97394 5.32904 5.84658 5.44191 5.73372L7.40644 3.76902C7.52641 3.64916 7.66517 3.55818 7.82272 3.49608C7.98039 3.43397 8.14567 3.40292 8.31858 3.40292C8.49148 3.40292 8.65683 3.43397 8.81461 3.49608C8.97228 3.55818 9.11109 3.64916 9.23106 3.76902L10.5373 5.07527C10.8581 5.3961 11.2215 5.64933 11.6273 5.83495C12.0332 6.02046 12.4631 6.12422 12.9171 6.14622V7.1907C12.3124 7.1687 11.7382 7.03716 11.1944 6.79608C10.6506 6.555 10.1671 6.22293 9.74394 5.79989L9.075 5.13078L7.22666 6.97913L8.76562 8.58684V12.6907H7.73438ZM10.5241 3.54163C10.19 3.54163 9.9059 3.42464 9.67192 3.19066C9.43794 2.95668 9.32095 2.67263 9.32095 2.3385C9.32095 2.00449 9.43794 1.7205 9.67192 1.48652C9.9059 1.25242 10.19 1.13538 10.5241 1.13538C10.8581 1.13538 11.1421 1.25242 11.3761 1.48652C11.6102 1.7205 11.7272 2.00449 11.7272 2.3385C11.7272 2.67263 11.6102 2.95668 11.3761 3.19066C11.1421 3.42464 10.8581 3.54163 10.5241 3.54163ZM12.929 14.7135C12.0361 14.7135 11.2755 14.3989 10.647 13.7696C10.0186 13.1403 9.70441 12.3792 9.70441 11.4862C9.70441 10.5934 10.0191 9.83271 10.6483 9.20422C11.2776 8.57584 12.0387 8.26166 12.9315 8.26166C13.8245 8.26166 14.5851 8.5763 15.2135 9.2056C15.842 9.83489 16.1562 10.596 16.1562 11.489C16.1562 12.3818 15.8416 13.1425 15.2123 13.7709C14.5829 14.3993 13.8218 14.7135 12.929 14.7135ZM12.9288 13.6823C13.5379 13.6823 14.0562 13.4691 14.4837 13.0427C14.9112 12.6162 15.125 12.0984 15.125 11.4891C15.125 10.8799 14.9118 10.3615 14.4853 9.934C14.0589 9.50661 13.5411 9.29291 12.9319 9.29291C12.3226 9.29291 11.8043 9.50609 11.3767 9.93245C10.9492 10.3589 10.7355 10.8768 10.7355 11.486C10.7355 12.0953 10.9487 12.6136 11.3752 13.0412C11.8017 13.4686 12.3195 13.6823 12.9288 13.6823Z" fill="#080A1C"/>
</g>
</g>
<defs>
<clipPath id="clip0_10_1339">
<rect width="19" height="14.3" fill="white" transform="translate(0 0.800049)"/>
</clipPath>
</defs>
</svg>
