<svg width="24" height="15" viewBox="0 0 24 15" fill="none" xmlns="http://www.w3.org/2000/svg">
<g clip-path="url(#clip0_37_489)">
<mask id="mask0_37_489" style="mask-type:alpha" maskUnits="userSpaceOnUse" x="1" y="-2" width="18" height="18">
<rect x="1.14014" y="-1.1499" width="17" height="17" fill="#D9D9D9"/>
</mask>
<g mask="url(#mask0_37_489)">
<path d="M4.81658 14.2154C3.89657 14.2154 3.11286 13.8912 2.46544 13.2429C1.81791 12.5945 1.49414 11.8103 1.49414 10.8903C1.49414 9.97043 1.81832 9.18672 2.46668 8.53918C3.11516 7.89177 3.89935 7.56806 4.81923 7.56806C5.73912 7.56806 6.52284 7.89224 7.17037 8.5406C7.81779 9.18896 8.1415 9.97315 8.1415 10.8932C8.1415 11.813 7.81732 12.5968 7.16895 13.2443C6.52059 13.8917 5.73647 14.2154 4.81658 14.2154ZM4.81622 13.1529C5.44393 13.1529 5.97801 12.9333 6.41847 12.494C6.85894 12.0546 7.07917 11.521 7.07917 10.8933C7.07917 10.2656 6.85947 9.73155 6.42007 9.29108C5.98067 8.85073 5.44711 8.63056 4.81941 8.63056C4.19183 8.63056 3.6578 8.8502 3.21734 9.28949C2.77687 9.72889 2.55664 10.2624 2.55664 10.8901C2.55664 11.5178 2.77634 12.0519 3.21574 12.4924C3.65503 12.9327 4.18852 13.1529 4.81622 13.1529ZM9.10872 12.1313V8.61002L6.74679 6.68796C6.62318 6.57627 6.52939 6.44565 6.4654 6.29607C6.40142 6.14649 6.36942 5.98918 6.36942 5.82414C6.36942 5.6591 6.40325 5.50345 6.47089 5.35717C6.53854 5.21102 6.6305 5.0798 6.74679 4.96352L8.77085 2.93928C8.89445 2.81579 9.03742 2.72206 9.19975 2.65807C9.36219 2.59408 9.53248 2.56209 9.71063 2.56209C9.88878 2.56209 10.0591 2.59408 10.2217 2.65807C10.3841 2.72206 10.5272 2.81579 10.6508 2.93928L11.9966 4.28511C12.3272 4.61567 12.7015 4.87657 13.1197 5.06782C13.5378 5.25895 13.9808 5.36585 14.4485 5.38852V6.46465C13.8255 6.44199 13.2339 6.30646 12.6736 6.05807C12.1133 5.80968 11.6152 5.46756 11.1792 5.0317L10.49 4.34231L8.58562 6.24666L10.1712 7.9031V12.1313H9.10872ZM11.983 2.705C11.6387 2.705 11.3461 2.58446 11.105 2.34339C10.8639 2.10232 10.7434 1.80966 10.7434 1.46541C10.7434 1.12128 10.8639 0.828681 11.105 0.587611C11.3461 0.346424 11.6387 0.22583 11.983 0.22583C12.3271 0.22583 12.6197 0.346424 12.8608 0.587611C13.102 0.828681 13.2225 1.12128 13.2225 1.46541C13.2225 1.80966 13.102 2.10232 12.8608 2.34339C12.6197 2.58446 12.3271 2.705 11.983 2.705ZM14.4607 14.2154C13.5408 14.2154 12.7571 13.8912 12.1096 13.2429C11.4622 12.5945 11.1385 11.8103 11.1385 10.8903C11.1385 9.97043 11.4626 9.18672 12.111 8.53918C12.7594 7.89177 13.5435 7.56806 14.4634 7.56806C15.3834 7.56806 16.1671 7.89224 16.8145 8.5406C17.462 9.18896 17.7858 9.97315 17.7858 10.8932C17.7858 11.813 17.4616 12.5968 16.8133 13.2443C16.1648 13.8917 15.3806 14.2154 14.4607 14.2154ZM14.4605 13.1529C15.0881 13.1529 15.6221 12.9333 16.0626 12.494C16.5031 12.0546 16.7233 11.521 16.7233 10.8933C16.7233 10.2656 16.5036 9.73155 16.0642 9.29108C15.6249 8.85073 15.0914 8.63056 14.4637 8.63056C13.836 8.63056 13.3019 8.8502 12.8615 9.28949C12.421 9.72889 12.2008 10.2624 12.2008 10.8901C12.2008 11.5178 12.4205 12.0519 12.8599 12.4924C13.2993 12.9327 13.8328 13.1529 14.4605 13.1529Z" fill="white"/>
</g>
</g>
<defs>
<clipPath id="clip0_37_489">
<rect width="23.09" height="14.02" fill="white" transform="translate(0.640137 0.25)"/>
</clipPath>
</defs>
</svg>
