<svg width="44" height="38" viewBox="0 0 44 38" fill="none" xmlns="http://www.w3.org/2000/svg">
<path d="M9.03795 37.878C6.66021 37.878 4.63595 37.0402 2.96516 35.3645C1.29438 33.6888 0.458984 31.6621 0.458984 29.2844C0.458984 26.9066 1.29682 24.8823 2.97251 23.2116C4.64851 21.5408 6.67539 20.7054 9.05313 20.7054C11.4305 20.7054 13.4548 21.5432 15.1259 23.2189C16.7967 24.8946 17.6321 26.9213 17.6321 29.299C17.6321 31.6768 16.7941 33.7011 15.1181 35.3718C13.4424 37.0426 11.4157 37.878 9.03795 37.878ZM9.03649 35.9197C10.8754 35.9197 12.4412 35.2762 13.734 33.9893C15.0272 32.7023 15.6738 31.1394 15.6738 29.3005C15.6738 27.462 15.0301 25.8961 13.7428 24.603C12.4559 23.3101 10.8931 22.6637 9.0546 22.6637C7.21572 22.6637 5.64987 23.3072 4.35705 24.5941C3.06389 25.8811 2.41732 27.444 2.41732 29.2829C2.41732 31.1214 3.06079 32.6873 4.34775 33.9804C5.63502 35.2733 7.19794 35.9197 9.03649 35.9197ZM21.0215 32.2292V22.5506L14.2275 17.4061C13.9364 17.1476 13.7117 16.8413 13.5534 16.4871C13.3954 16.1333 13.3164 15.7612 13.3164 15.3709C13.3164 14.9802 13.3974 14.6173 13.5593 14.2821C13.7211 13.9469 13.9439 13.6374 14.2275 13.3538L19.9371 7.64477C20.2282 7.35331 20.5698 7.12859 20.9618 6.97062C21.3541 6.81232 21.7653 6.73317 22.1955 6.73317C22.6254 6.73317 23.0368 6.81232 23.4297 6.97062C23.8227 7.12859 24.1648 7.35331 24.4559 7.64477L28.1767 11.3656C29.0906 12.2795 30.1163 13.0038 31.2538 13.5384C32.3912 14.0733 33.6002 14.4035 34.8806 14.5288V16.5625C33.2963 16.4369 31.7956 16.0465 30.3784 15.3915C28.9609 14.7361 27.6999 13.856 26.5954 12.7511L24.3507 10.5069L18.5207 16.3363L22.9798 20.9913V32.2292H21.0215ZM28.1018 6.54468C27.2758 6.54468 26.5796 6.2617 26.0133 5.69574C25.4473 5.12946 25.1643 4.43327 25.1643 3.60718C25.1643 2.78141 25.4473 2.08539 26.0133 1.5191C26.5796 0.952819 27.2758 0.669678 28.1018 0.669678C28.9276 0.669678 29.6236 0.952819 30.1899 1.5191C30.7562 2.08539 31.0393 2.78141 31.0393 3.60718C31.0393 4.43327 30.7562 5.12946 30.1899 5.69574C29.6236 6.2617 28.9276 6.54468 28.1018 6.54468ZM34.9482 37.878C32.5708 37.878 30.5465 37.0402 28.8754 35.3645C27.2046 33.6888 26.3692 31.6621 26.3692 29.2844C26.3692 26.9066 27.2072 24.8823 28.8832 23.2116C30.5589 21.5408 32.5856 20.7054 34.9634 20.7054C37.3411 20.7054 39.3654 21.5432 41.0361 23.2189C42.7069 24.8946 43.5423 26.9213 43.5423 29.299C43.5423 31.6768 42.7045 33.7011 41.0288 35.3718C39.3528 37.0426 37.3259 37.878 34.9482 37.878ZM34.9467 35.9197C36.7856 35.9197 38.3514 35.2762 39.6443 33.9893C40.9374 32.7023 41.584 31.1394 41.584 29.3005C41.584 27.462 40.9405 25.8961 39.6536 24.603C38.3663 23.3101 36.8034 22.6637 34.9648 22.6637C33.1259 22.6637 31.5601 23.3072 30.2673 24.5941C28.9741 25.8811 28.3275 27.444 28.3275 29.2829C28.3275 31.1214 28.9712 32.6873 30.2585 33.9804C31.5454 35.2733 33.1082 35.9197 34.9467 35.9197Z" fill="#1C1B1F"/>
</svg>
