<svg width="219" height="122" viewBox="0 0 219 122" fill="none" xmlns="http://www.w3.org/2000/svg">
<g clip-path="url(#clip0_41_3746)">
<path d="M0.144531 115.354L55.1445 98.6694" stroke="#DCDCDC"/>
<path d="M64.7264 120.854L147.565 96.4852" stroke="#DCDCDC"/>
<path d="M161.145 91.9844L218.145 76.6694" stroke="#DCDCDC"/>
<path d="M136.428 72.953L178.428 61.638" stroke="#DCDCDC"/>
<path d="M73.5 51C73.5 30.4774 85.9654 15 102.5 15C119.035 15 131.5 30.4774 131.5 51C131.5 71.5226 119.033 87 102.5 87C85.9673 87 73.5 71.5226 73.5 51ZM125.834 51C125.834 33.8299 116.22 19.0006 102.502 19.0006C83 19.0006 75.1679 33.8287 75.1679 51C75.1679 68.1713 84.5 84.0006 102.502 84.0006C114.506 84.0006 125.834 68.1713 125.834 51Z" fill="#DCDCDC"/>
<path d="M112.502 51C112.502 48.7197 110.783 47 108.502 47H94.5759C93.7394 46.3675 92.6806 46 91.502 46C88.6512 46 86.502 48.1496 86.502 51C86.502 53.8504 88.6515 56 91.502 56C92.6806 56 93.7393 55.6325 94.5759 54.9999L108.502 55C110.782 55 112.502 53.2803 112.502 51Z" fill="#D9D9D9"/>
<path d="M92.253 -0.0650024H100.397C123.345 -0.0650024 141.324 22.3365 141.324 50.935C141.324 79.5334 123.345 101.935 100.397 101.935H92.253C69.3023 101.935 51.3242 79.5365 51.3242 50.935C51.3242 22.3335 69.3023 -0.0650024 92.253 -0.0650024ZM138.502 50.935C138.502 25.6257 126.5 5.0345 100.397 5.0345C81.5857 5.0345 63.2888 25.6257 63.2888 50.935C63.2888 76.2443 81.5911 96.8345 100.397 96.8345C129.5 96.8345 138.502 76.2433 138.502 50.935Z" fill="#DCDCDC"/>
<path d="M49.1381 114.297C49.0951 114.327 49.0439 114.344 48.9913 114.344C48.9387 114.345 48.8871 114.33 48.8434 114.301C48.7996 114.271 48.7656 114.23 48.7459 114.181C48.7263 114.132 48.7218 114.079 48.7331 114.027L50.0373 107.325C50.0505 107.257 50.0903 107.197 50.1478 107.158C50.2053 107.119 50.2759 107.105 50.344 107.118C50.4122 107.131 50.4722 107.171 50.511 107.229C50.5498 107.286 50.5642 107.357 50.5509 107.425L49.2476 114.13C49.2411 114.164 49.2281 114.196 49.2091 114.225C49.1902 114.253 49.1658 114.278 49.1373 114.297L49.1381 114.297Z" fill="#DCDCDC" stroke="#DCDCDC" stroke-width="0.6"/>
<path d="M53.1406 111.596C53.1119 111.616 53.0795 111.63 53.0454 111.637C53.0112 111.644 52.976 111.645 52.9417 111.638L46.2391 110.333C46.1709 110.319 46.1109 110.28 46.0721 110.222C46.0333 110.165 46.0189 110.094 46.0322 110.026C46.0454 109.958 46.0852 109.898 46.1427 109.859C46.2002 109.82 46.2708 109.806 46.3389 109.819L53.0424 111.12C53.0932 111.13 53.14 111.154 53.1768 111.191C53.2136 111.227 53.2387 111.274 53.249 111.324C53.2593 111.375 53.2543 111.428 53.2346 111.476C53.2149 111.523 53.1814 111.564 53.1384 111.593L53.1406 111.596Z" fill="#DCDCDC" stroke="#DCDCDC" stroke-width="0.6"/>
<path d="M145.537 91.6117C145.494 91.642 145.442 91.6585 145.39 91.6592C145.337 91.6599 145.286 91.6446 145.242 91.6155C145.198 91.5863 145.164 91.5446 145.144 91.4959C145.125 91.4471 145.12 91.3935 145.132 91.3421L146.436 84.64C146.449 84.5719 146.489 84.5118 146.546 84.473C146.604 84.4342 146.674 84.4199 146.742 84.4331C146.811 84.4463 146.871 84.4861 146.909 84.5436C146.948 84.6012 146.963 84.6717 146.949 84.7398L145.646 91.445C145.64 91.4788 145.626 91.5109 145.608 91.5397C145.589 91.5684 145.564 91.593 145.536 91.6123L145.537 91.6117Z" fill="#DCDCDC" stroke="#DCDCDC" stroke-width="0.6"/>
<path d="M149.539 88.9114C149.51 88.9312 149.478 88.9451 149.444 88.9522C149.41 88.9593 149.374 88.9595 149.34 88.9527L142.637 87.6477C142.569 87.6344 142.509 87.5947 142.471 87.5372C142.432 87.4796 142.417 87.409 142.431 87.3409C142.444 87.2728 142.484 87.2128 142.541 87.174C142.599 87.1351 142.669 87.1208 142.737 87.134L149.441 88.4349C149.492 88.4446 149.538 88.4693 149.575 88.5057C149.612 88.5421 149.637 88.5886 149.647 88.6393C149.658 88.69 149.653 88.7427 149.633 88.7905C149.613 88.8384 149.58 88.8793 149.537 88.9081L149.539 88.9114Z" fill="#DCDCDC" stroke="#DCDCDC" stroke-width="0.6"/>
<path d="M178.638 71.5807C178.595 71.611 178.544 71.6275 178.491 71.6282C178.439 71.6289 178.387 71.6136 178.343 71.5845C178.3 71.5553 178.266 71.5136 178.246 71.4648C178.226 71.4161 178.222 71.3625 178.233 71.3111L179.537 64.609C179.551 64.5409 179.59 64.4808 179.648 64.442C179.705 64.4032 179.776 64.3889 179.844 64.4021C179.912 64.4153 179.972 64.4551 180.011 64.5126C180.05 64.5701 180.064 64.6407 180.051 64.7088L178.748 71.414C178.741 71.4478 178.728 71.4799 178.709 71.5086C178.69 71.5374 178.666 71.562 178.637 71.5813L178.638 71.5807Z" fill="#DCDCDC" stroke="#DCDCDC" stroke-width="0.6"/>
<path d="M182.641 68.8804C182.612 68.9002 182.58 68.9141 182.545 68.9212C182.511 68.9283 182.476 68.9285 182.442 68.9217L175.739 67.6167C175.671 67.6034 175.611 67.5637 175.572 67.5061C175.533 67.4486 175.519 67.378 175.532 67.3099C175.545 67.2418 175.585 67.1817 175.643 67.1429C175.7 67.1041 175.771 67.0898 175.839 67.103L182.542 68.4039C182.593 68.4136 182.64 68.4383 182.677 68.4747C182.714 68.5111 182.739 68.5576 182.749 68.6083C182.759 68.659 182.754 68.7117 182.735 68.7595C182.715 68.8074 182.681 68.8483 182.638 68.8771L182.641 68.8804Z" fill="#DCDCDC" stroke="#DCDCDC" stroke-width="0.6"/>
<line x1="94.0499" y1="83.7822" x2="109.05" y2="52.7822" stroke="#D9D9D9"/>
<line x1="83.108" y1="76.6896" x2="121.108" y2="28.6896" stroke="#D9D9D9"/>
<line x1="74.5" y1="51.5" x2="126.5" y2="51.5" stroke="#D9D9D9"/>
<line x1="76.7873" y1="34.5908" x2="123.787" y2="67.5908" stroke="#D9D9D9"/>
<line x1="83.861" y1="24.654" x2="106.861" y2="48.654" stroke="#D9D9D9"/>
<line x1="90.9914" y1="19.9079" x2="102.991" y2="83.9079" stroke="#D9D9D9"/>
<line x1="128.695" y1="40.4605" x2="76.6948" y2="62.4605" stroke="#D9D9D9"/>
<line x1="102.941" y1="51.7639" x2="117.941" y2="79.7639" stroke="#D9D9D9"/>
<line x1="96.9785" y1="17.855" x2="106.979" y2="50.855" stroke="#D9D9D9"/>
<line x1="109.973" y1="20.163" x2="99.9727" y2="49.163" stroke="#D9D9D9"/>
<line x1="115.978" y1="22.1482" x2="106.978" y2="51.1482" stroke="#D9D9D9"/>
<circle cx="108.5" cy="51" r="3.5" fill="#D9D9D9" stroke="white"/>
</g>
<defs>
<clipPath id="clip0_41_3746">
<rect width="218.275" height="121.345" fill="white"/>
</clipPath>
</defs>
</svg>
