<?xml version="1.0" encoding="utf-8"?>
<!-- Generator: Adobe Illustrator 28.0.0, SVG Export Plug-In . SVG Version: 6.00 Build 0)  -->
<svg version="1.1" id="Layer_1" xmlns="http://www.w3.org/2000/svg" xmlns:xlink="http://www.w3.org/1999/xlink" x="0px" y="0px"
	 width="20px" height="20px" viewBox="0 0 20 20" style="enable-background:new 0 0 20 20;" xml:space="preserve">
<g>
	<g>
		<path d="M10,1c-5,0-9,4-9,9c0,5,4,9,9,9c5,0,9-4,9-9C19,5,15,1,10,1z M9.7,14.2c-0.5,0-0.9-0.4-0.9-0.9c0-0.5,0.4-0.9,0.9-0.9
			c0.5,0,0.9,0.4,0.9,0.9C10.6,13.8,10.2,14.2,9.7,14.2z M11.1,9.6c-0.7,0.5-0.7,0.9-0.7,1.5c0,0.2-0.1,0.5-0.7,0.5
			c-0.5,0-0.7-0.2-0.7-0.8c0-1,0.5-1.5,0.8-1.8c0.4-0.3,1.1-0.7,1.1-1.3c0-0.5-0.5-0.8-1.1-0.8c-1.2,0-0.9,0.9-1.6,0.9
			c-0.3,0-0.7-0.2-0.7-0.7c0-0.6,0.7-1.6,2.3-1.6c1.5,0,2.5,0.8,2.5,2S11.4,9.4,11.1,9.6z"/>
	</g>
</g>
</svg>
