<svg xmlns="http://www.w3.org/2000/svg" width="14.4" height="14.4" viewBox="0 0 14.4 14.4">
  <g id="import" transform="translate(-1387.075 -885.573)">
    <path id="upload" d="M2.273,8.01a.612.612,0,0,0-.636-.584A.612.612,0,0,0,1,8.01V12.1a1.836,1.836,0,0,0,1.909,1.752H13.091A1.836,1.836,0,0,0,15,12.1V8.01a.639.639,0,0,0-1.273,0V12.1a.612.612,0,0,1-.636.584H2.909a.612.612,0,0,1-.636-.584Z" transform="translate(1386.275 885.922)" fill="#1852d8" stroke="#1852d8" stroke-width="0.4" fill-rule="evenodd"/>
    <path id="upload-2" data-name="upload" d="M7.52,11.344a.761.761,0,0,0,.962,0l3.4-2.921a.528.528,0,0,0,0-.826.761.761,0,0,0-.962,0L8.681,9.52V1.584A.638.638,0,0,0,8,1a.638.638,0,0,0-.68.584V9.52L5.082,7.6a.761.761,0,0,0-.962,0,.528.528,0,0,0,0,.826Z" transform="translate(1386.275 884.773)" fill="#1852d8" stroke="#1852d8" stroke-width="0.4" fill-rule="evenodd"/>
  </g>
</svg>
